<?xml version="1.0" encoding="UTF-8" standalone="no"?>
<!-- Created with Inkscape (http://www.inkscape.org/) -->

<svg
   xmlns:dc="http://purl.org/dc/elements/1.1/"
   xmlns:cc="http://creativecommons.org/ns#"
   xmlns:rdf="http://www.w3.org/1999/02/22-rdf-syntax-ns#"
   xmlns:svg="http://www.w3.org/2000/svg"
   xmlns="http://www.w3.org/2000/svg"
   xmlns:sodipodi="http://sodipodi.sourceforge.net/DTD/sodipodi-0.dtd"
   xmlns:inkscape="http://www.inkscape.org/namespaces/inkscape"
   width="500"
   height="500"
   viewBox="0 0 500 500"
   id="svg3365"
   version="1.1"
   inkscape:version="0.91 r13725"
   sodipodi:docname="papillon08.svg"
   inkscape:export-filename="C:\Users\Rodrigue\GitHub\INFO-F308-Projet_d_informatique_3-Project-201415\video\papillon\papillon08.png"
   inkscape:export-xdpi="90"
   inkscape:export-ydpi="90">
  <defs
     id="defs3367" />
  <sodipodi:namedview
     id="base"
     pagecolor="#000000"
     bordercolor="#666666"
     borderopacity="1.0"
     inkscape:pageopacity="0"
     inkscape:pageshadow="2"
     inkscape:zoom="0.7"
     inkscape:cx="254.38004"
     inkscape:cy="208.23152"
     inkscape:document-units="px"
     inkscape:current-layer="layer1"
     showgrid="false"
     units="px"
     borderlayer="true"
     inkscape:showpageshadow="false"
     inkscape:window-width="1846"
     inkscape:window-height="1058"
     inkscape:window-x="1912"
     inkscape:window-y="-8"
     inkscape:window-maximized="1" />
  <metadata
     id="metadata3370">
    <rdf:RDF>
      <cc:Work
         rdf:about="">
        <dc:format>image/svg+xml</dc:format>
        <dc:type
           rdf:resource="http://purl.org/dc/dcmitype/StillImage" />
        <dc:title></dc:title>
      </cc:Work>
    </rdf:RDF>
  </metadata>
  <g
     inkscape:label="Calque 1"
     inkscape:groupmode="layer"
     id="layer1"
     transform="translate(0,-552.36216)">
    <g
       id="g3613"
       transform="matrix(1.9865911,0.3060931,-0.3060931,1.9865911,50.408177,-629.69975)"
       inkscape:export-filename="C:\Users\Rodrigue\g3613.png"
       inkscape:export-xdpi="518.34125"
       inkscape:export-ydpi="518.34125"
       style="fill:#ffffff">
      <path
         style="fill:#ffffff;fill-opacity:1"
         d="m 175.32466,797.59172 c -1.8953,-1.57894 -4.81398,-2.45841 -8.15865,-2.45841 -4.1332,0 -6.58059,-1.03161 -11.86202,-5 -3.65991,-2.75 -7.74186,-5 -9.07103,-5 -1.39715,0 -3.43667,-1.71383 -4.83457,-4.0625 -1.32986,-2.23438 -4.32863,-5.5727 -6.66393,-7.41851 -2.95471,-2.33539 -4.67731,-5.06889 -5.66422,-8.9883 -0.78003,-3.09777 -1.98104,-5.98014 -2.66891,-6.40527 -0.68788,-0.42513 -1.25678,-2.5679 -1.26422,-4.7617 -0.008,-2.1938 -0.77405,-6.51997 -1.70357,-9.61372 -1.90615,-6.3443 -1.66591,-9.67455 1.21732,-16.875 4.91635,-12.2778 5.44905,-13.07056 10.15203,-15.10803 6.0264,-2.6108 3.46991,-3.62563 -4.7127,-1.87078 -3.47194,0.7446 -8.92813,1.35381 -12.12488,1.35381 -5.35293,0 -6.27238,-0.49009 -11.63436,-6.2013 -7.232735,-7.70383 -14.253973,-21.97038 -21.922185,-44.54398 -4.976225,-14.64892 -5.996438,-19.27808 -6.493025,-29.46155 -0.7829,-16.05463 -0.15365,-18.14798 6.341513,-21.09658 12.716112,-5.77272 31.032697,-2.18379 56.173487,11.00657 17.49428,9.17854 24.67704,14.65829 43.11599,32.89334 8.3991,8.30622 15.85222,14.74306 16.5625,14.30409 2.081,-1.28613 1.47955,-7.2017 -1.17483,-11.5551 -4.09176,-6.71083 -21.98815,-23.44823 -33.53321,-31.36157 -5.98155,-4.09995 -12.00055,-8.75083 -13.37555,-10.33532 l -2.5,-2.88088 4.80141,2.76619 c 13.83961,7.97329 42.09392,34.37179 49.16798,45.93851 1.35018,2.20767 1.54102,2.06949 2.35242,-1.70332 0.99328,-4.61841 2.0918,-4.33665 2.76763,0.70987 0.44513,3.32402 3.51395,7.77103 5.36265,7.77103 1.08418,0 6.17488,-11.9501 13.82247,-32.44741 5.87433,-15.74457 13.47508,-28.0697 27.51151,-44.61182 10.2805,-12.1157 14.67766,-15.64088 25.80047,-20.6842 11.53763,-5.23142 17.21492,-5.05716 22.2095,0.68172 6.23595,7.16525 10.5411,22.48177 13.07727,46.52528 2.51793,23.87058 1.8438,39.51658 -2.13442,49.53808 -2.06449,5.20061 -6.37981,7.37941 -20.09981,10.14836 -8.84367,1.78483 -8.99744,3.34999 -0.32912,3.34999 5.37663,0 6.24403,0.48804 12.77453,7.1875 7.87974,8.08362 9.79051,11.19015 9.79051,15.9174 0,1.79809 0.861,4.93425 1.91335,6.96925 1.05234,2.035 1.80654,5.52269 1.67601,7.75042 -0.13052,2.22774 0.17036,6.36679 0.66865,9.19789 0.72017,4.09176 0.37738,6.01451 -1.67135,9.375 -1.41752,2.32515 -2.57942,6.08264 -2.58199,8.35 -0.004,2.92563 -0.98518,4.96585 -3.382,7.0275 -1.85752,1.59779 -4.00362,4.80518 -4.7691,7.12755 -0.93541,2.83794 -3.27232,5.44816 -7.12693,7.96045 -3.15434,2.05589 -6.77388,5.3169 -8.0434,7.24671 -4.04758,6.15272 -9.65213,8.76468 -17.42373,8.1202 -5.43806,-0.45097 -7.66405,-1.34085 -10.86212,-4.34233 -2.21232,-2.07632 -6.55364,-5.488 -9.64739,-7.58152 -6.91018,-4.67606 -10.67324,-8.72103 -17.19334,-18.48138 -2.77407,-4.15269 -6.03969,-8.37144 -7.25691,-9.375 -2.07724,-1.7126 -2.16453,-1.46742 -1.42174,3.99326 0.5897,4.33531 0.32386,6.20589 -1.0432,7.34045 -1.52372,1.26459 -2.1379,0.79659 -3.62481,-2.76211 -0.98464,-2.35658 -2.17068,-5.8004 -2.63564,-7.65295 -0.46496,-1.85257 -1.309,-3.36829 -1.87564,-3.36829 -1.38425,0 -2.07729,2.43067 -4.86615,17.06664 -1.77967,9.33975 -3.49656,14.32361 -6.85051,19.88586 -2.4616,4.08237 -4.47708,7.94802 -4.47885,8.59035 -0.001,0.64231 -1.17136,3.58091 -2.59909,6.53021 -2.05785,4.25093 -3.54758,5.62671 -7.1875,6.63769 -7.41907,2.06062 -15.45898,1.52485 -18.7926,-1.25234 z"
         id="path3457"
         inkscape:connector-curvature="0" />
      <path
         style="fill:#ffffff;fill-opacity:1"
         d="m 207.94166,646.38331 c -0.028,-3.78125 0.70783,-9.6875 1.63533,-13.125 l 1.68635,-6.25 -0.74739,5.625 c -0.41106,3.09375 -1.14696,9 -1.63532,13.125 l -0.88793,7.5 -0.051,-6.875 z"
         id="path3453"
         inkscape:connector-curvature="0" />
      <path
         style="fill:#ffffff;fill-opacity:1"
         d="m 211.49933,624.40415 c 0.06,-1.45619 0.35617,-1.75238 0.7552,-0.75522 0.36108,0.90234 0.31668,1.98048 -0.0986,2.39584 -0.41536,0.41536 -0.7108,-0.32292 -0.65652,-1.64062 z"
         id="path3447"
         inkscape:connector-curvature="0" />
      <path
         style="fill:#ffffff;fill-opacity:1"
         d="m 212.70657,620.12933 c -0.0308,-1.03343 0.99628,-5.55838 2.28233,-10.05543 2.62476,-9.17835 7.51957,-19.35598 7.60649,-15.81602 0.0304,1.23727 -0.88521,4.04977 -2.03465,6.25 -1.14945,2.20024 -3.37429,7.93793 -4.94407,12.75043 -1.5698,4.8125 -2.87934,7.90446 -2.9101,6.87102 z"
         id="path3445"
         inkscape:connector-curvature="0" />
    </g>
  </g>
</svg>
