<?xml version="1.0" encoding="UTF-8" standalone="no"?>
<!-- Created with Inkscape (http://www.inkscape.org/) -->

<svg
   xmlns:dc="http://purl.org/dc/elements/1.1/"
   xmlns:cc="http://creativecommons.org/ns#"
   xmlns:rdf="http://www.w3.org/1999/02/22-rdf-syntax-ns#"
   xmlns:svg="http://www.w3.org/2000/svg"
   xmlns="http://www.w3.org/2000/svg"
   xmlns:sodipodi="http://sodipodi.sourceforge.net/DTD/sodipodi-0.dtd"
   xmlns:inkscape="http://www.inkscape.org/namespaces/inkscape"
   width="500"
   height="500"
   viewBox="0 0 500 500"
   id="svg3365"
   version="1.1"
   inkscape:version="0.91 r13725"
   sodipodi:docname="papillon10.svg"
   inkscape:export-filename="C:\Users\Rodrigue\GitHub\INFO-F308-Projet_d_informatique_3-Project-201415\video\papillon\papillon09.png"
   inkscape:export-xdpi="90"
   inkscape:export-ydpi="90">
  <defs
     id="defs3367" />
  <sodipodi:namedview
     id="base"
     pagecolor="#000000"
     bordercolor="#666666"
     borderopacity="1.0"
     inkscape:pageopacity="0"
     inkscape:pageshadow="2"
     inkscape:zoom="0.7"
     inkscape:cx="254.38004"
     inkscape:cy="208.23152"
     inkscape:document-units="px"
     inkscape:current-layer="layer1"
     showgrid="false"
     units="px"
     borderlayer="true"
     inkscape:showpageshadow="false"
     inkscape:window-width="1846"
     inkscape:window-height="1058"
     inkscape:window-x="1912"
     inkscape:window-y="-8"
     inkscape:window-maximized="1" />
  <metadata
     id="metadata3370">
    <rdf:RDF>
      <cc:Work
         rdf:about="">
        <dc:format>image/svg+xml</dc:format>
        <dc:type
           rdf:resource="http://purl.org/dc/dcmitype/StillImage" />
        <dc:title></dc:title>
      </cc:Work>
    </rdf:RDF>
  </metadata>
  <g
     inkscape:label="Calque 1"
     inkscape:groupmode="layer"
     id="layer1"
     transform="translate(0,-552.36216)">
    <g
       id="g3604"
       transform="matrix(2.4663604,0.49226916,-0.49226916,2.4663604,1184.8104,-253.98024)"
       inkscape:export-filename="C:\Users\Rodrigue\g3604.png"
       inkscape:export-xdpi="90"
       inkscape:export-ydpi="90"
       style="fill:#ffffff">
      <path
         style="fill:#ffffff;fill-opacity:1"
         d="m -323.14283,565.83028 c -2.64105,-1.14928 -5.08605,-3.88396 -7.5,-8.38857 -2.9868,-5.57359 -4.82011,-7.32465 -11.04035,-10.54504 -5.79426,-2.99985 -7.96643,-4.95257 -9.73336,-8.75 -2.89526,-6.22239 -2.23898,-16.05321 1.69296,-25.35994 2.65076,-6.27425 2.69805,-6.82517 0.71056,-8.27846 -1.17105,-0.85629 -5.42558,-1.92984 -9.45451,-2.38566 -8.92556,-1.00981 -10.63642,-2.69936 -12.96731,-12.80578 -1.12375,-4.87241 -3.45174,-9.97712 -6.35162,-13.92755 -9.32679,-12.70563 -10.46288,-19.60645 -4.2504,-25.81762 7.46733,-7.46575 24.19432,-6.68265 41.08376,1.92341 6.4052,3.26379 9.58113,4.09354 16.10374,4.20728 9.07483,0.15825 12.04979,1.41437 19.54455,8.25237 2.84325,2.5941 6.92138,5.62245 9.0625,6.72966 3.51625,1.81833 3.8955,2.58455 3.91931,7.91853 0.0145,3.24797 1.4183,9.8429 3.11956,14.6554 1.70125,4.8125 3.09564,9.8562 3.09863,11.20821 0.003,1.35201 0.92877,4.87591 2.05729,7.83089 1.9153,5.01512 1.90512,6.05772 -0.15295,15.66679 -3.22795,15.0711 -5.38506,18.41911 -11.86739,18.41911 -2.58331,0 -3.7815,2.37844 -3.7815,7.50632 0,4.80807 -5.37627,10.88324 -11.01785,12.45014 -5.89589,1.63754 -7.49422,1.5712 -12.27562,-0.50949 z"
         id="path3415"
         inkscape:connector-curvature="0" />
      <path
         style="fill:#ffffff;fill-opacity:1"
         d="m -227.97436,544.62198 c -2.0625,-0.91491 -4.82295,-3.7054 -6.13434,-6.20107 -2.26764,-4.31551 -2.69759,-4.5376 -8.78436,-4.5376 -7.42629,0 -10.61684,-1.84964 -14.55272,-8.43656 -1.54082,-2.57864 -4.05576,-6.09469 -5.58877,-7.81344 -2.79139,-3.1296 -4.69655,-10.50569 -6.78007,-26.25 -0.59137,-4.46875 -2.30974,-11.41808 -3.8186,-15.44296 -2.72857,-7.27842 -2.73023,-7.33583 -0.30779,-10.625 1.33957,-1.81887 3.99668,-6.79293 5.90466,-11.05345 3.91767,-8.74809 5.61219,-10.59084 13.33,-14.49604 3.43029,-1.73573 8.54675,-6.46313 13.80749,-12.75755 9.63371,-11.52665 18.69105,-16.86431 28.62814,-16.8711 10.90468,-0.008 16.19652,10.22352 13.3938,25.89489 -1.0687,5.9756 -1.02352,9.30273 0.19538,14.38366 2.37419,9.89671 1.61883,12.22334 -5.47268,16.85672 -9.39108,6.13587 -9.47393,6.91912 -1.60457,15.16933 7.62464,7.99364 10.52534,12.83831 10.9788,18.33656 0.64144,7.77745 -0.18963,10.3896 -5.06937,15.93326 -4.5503,5.16942 -5,6.3042 -5,12.61718 0,8.45209 -1.88156,12.92049 -6.43129,15.27325 -4.27327,2.2098 -11.73696,2.2187 -16.69371,0.0199 z"
         id="path3403"
         inkscape:connector-curvature="0" />
      <path
         style="fill:#ffffff;fill-opacity:1"
         d="m -274.67928,519.7835 c -1.3936,-2.25489 -3.09238,-6.58574 -3.77505,-9.62412 -0.68268,-3.03837 -2.37342,-6.39658 -3.7572,-7.46268 -3.38028,-2.60428 -7.71443,-18.91175 -7.51851,-28.28883 0.085,-4.06976 -0.0476,-8.92967 -0.29486,-10.79981 -0.49057,-3.71128 -7.04355,-11.33049 -12.70713,-14.77473 -2.00933,-1.22195 -3.00785,-2.52465 -2.27995,-2.97451 0.7123,-0.44022 4.74719,2.45081 8.96643,6.42454 4.21924,3.97372 8.16072,7.40496 8.75885,7.62497 0.59812,0.22002 2.84885,-3.15498 5.00163,-7.5 6.25251,-12.61965 6.76007,-13.50498 7.74821,-13.51527 1.5401,-0.016 1.06364,2.07945 -0.8302,3.6512 -0.97222,0.80687 -3.15392,4.95387 -4.84822,9.21555 -3.46657,8.71952 -3.29338,14.90127 0.53516,19.10132 3.78526,4.15259 7.33981,16.05885 7.91256,26.50385 0.29084,5.30383 1.08529,12.17458 1.76545,15.26833 1.2581,5.72257 0.7025,11.25 -1.13081,11.25 -0.5569,0 -2.15276,-1.84491 -3.54636,-4.09981 z"
         id="path3399"
         inkscape:connector-curvature="0" />
    </g>
  </g>
</svg>
