<?xml version="1.0" encoding="UTF-8" standalone="no"?>
<!-- Created with Inkscape (http://www.inkscape.org/) -->

<svg
   xmlns:dc="http://purl.org/dc/elements/1.1/"
   xmlns:cc="http://creativecommons.org/ns#"
   xmlns:rdf="http://www.w3.org/1999/02/22-rdf-syntax-ns#"
   xmlns:svg="http://www.w3.org/2000/svg"
   xmlns="http://www.w3.org/2000/svg"
   xmlns:sodipodi="http://sodipodi.sourceforge.net/DTD/sodipodi-0.dtd"
   xmlns:inkscape="http://www.inkscape.org/namespaces/inkscape"
   width="500"
   height="500"
   viewBox="0 0 500 500"
   id="svg3365"
   version="1.1"
   inkscape:version="0.91 r13725"
   sodipodi:docname="papillon01.svg"
   inkscape:export-filename="C:\Users\Rodrigue\GitHub\INFO-F308-Projet_d_informatique_3-Project-201415\video\papillon\papillon01.png"
   inkscape:export-xdpi="90"
   inkscape:export-ydpi="90">
  <defs
     id="defs3367" />
  <sodipodi:namedview
     id="base"
     pagecolor="#000000"
     bordercolor="#666666"
     borderopacity="1.0"
     inkscape:pageopacity="0"
     inkscape:pageshadow="2"
     inkscape:zoom="1.4"
     inkscape:cx="131.83292"
     inkscape:cy="240.87572"
     inkscape:document-units="px"
     inkscape:current-layer="layer1"
     showgrid="false"
     units="px"
     borderlayer="true"
     inkscape:showpageshadow="false"
     inkscape:window-width="1846"
     inkscape:window-height="1058"
     inkscape:window-x="1912"
     inkscape:window-y="-8"
     inkscape:window-maximized="1" />
  <metadata
     id="metadata3370">
    <rdf:RDF>
      <cc:Work
         rdf:about="">
        <dc:format>image/svg+xml</dc:format>
        <dc:type
           rdf:resource="http://purl.org/dc/dcmitype/StillImage" />
        <dc:title></dc:title>
      </cc:Work>
    </rdf:RDF>
  </metadata>
  <g
     inkscape:label="Calque 1"
     inkscape:groupmode="layer"
     id="layer1"
     transform="translate(0,-552.36216)">
    <path
       inkscape:connector-curvature="0"
       id="path3467"
       d="m 330.66124,962.45684 c -7.67626,0.18867 -14.62428,-1.84518 -27.16231,-7.95057 -17.55922,-8.55043 -30.51487,-19.81672 -44.06178,-38.31626 -3.87741,-5.29493 -7.71138,-9.39806 -8.51995,-9.11808 -0.80858,0.28001 1.12757,10.38682 -0.0625,15.47552 -1.1901,5.08864 -1.72595,10.45898 -2.93675,10.18793 -2.89016,-0.64691 -9.99155,-14.07829 -9.12803,-19.49621 0.92,-5.77247 -0.73709,-4.89547 -10.74302,5.68578 -4.66379,4.93185 -17.00979,15.48566 -27.43559,23.45293 -16.18126,12.36536 -20.70918,14.93949 -30.93279,17.5855 -15.26425,3.95057 -26.05887,2.74069 -41.31514,-4.63077 -23.18368,-11.20163 -37.501209,-32.57759 -40.349049,-60.24069 -2.469665,-23.98987 4.029175,-48.69643 15.742819,-59.8493 5.02028,-4.77998 2.79149,-6.70008 -9.898165,-8.52717 -18.087776,-2.60436 -33.703112,-15.62726 -39.820493,-33.20957 -1.361568,-3.91244 -4.717315,-18.86359 -7.457919,-33.22456 -2.740561,-14.36098 -7.52253,-36.60543 -10.626572,-49.43214 -8.792536,-36.33286 -11.633973,-34.00652 -6.943373,-50.25314 1.787778,-6.19224 6.483641,-12.35278 12.447928,-14.79559 11.448181,-4.68886 11.883294,-3.18955 36.950079,3.4797 59.905065,15.93834 102.073205,42.89425 137.281105,87.75667 16.86066,21.48419 20.63808,25.5399 23.01935,24.71533 2.43137,-0.8419 9.97287,-7.0659 8.49182,-20.60603 -0.87858,-8.03284 -11.30145,-45.89399 -19.55054,-69.71629 -8.34076,-24.08702 -11.65908,-35.69522 -9.96566,-34.86215 1.58095,0.77773 8.78622,19.6285 19.09723,49.96297 21.15994,62.25124 20.42452,62.03103 39.07162,11.69837 12.58854,-33.97937 31.24846,-68.03396 33.58357,-61.29049 0.52528,1.51696 -1.20234,5.42377 -3.83918,8.68176 -7.7425,9.56637 -21.63698,37.31078 -35.38591,78.06966 -3.85882,11.43952 -4.92675,10.3979 -4.0754,20.16337 0.63448,7.27828 5.1937,18.46071 5.76644,18.73885 0.57276,0.2781 5.61311,-4.85844 11.20083,-11.41458 25.67634,-30.12647 64.86426,-62.30263 97.22503,-79.82885 16.43475,-8.90087 60.74384,-23.93175 84.39866,-28.63035 11.2509,-2.23479 22.73122,0.94 25.70776,7.10928 4.74977,9.84464 -2.16988,43.88432 -16.76678,82.48034 -4.10797,10.86205 -10.4515,28.42665 -14.09665,39.03251 -3.64518,10.60581 -9.65638,23.67066 -13.35825,29.03299 -10.95567,15.86989 -33.70148,28.46096 -50.3326,27.86192 -3.71719,-0.13391 -3.73187,0.36133 -0.16909,5.70128 2.14601,3.21636 6.09064,12.19871 8.76586,19.96085 4.38815,12.73143 4.6182,15.69328 2.35248,30.25833 -3.15922,20.30892 -15.14221,43.83677 -29.36538,57.65733 -12.49164,12.13787 -30.88977,20.25273 -46.80365,20.64362 z"
       style="fill:#ffffff;fill-opacity:1"
       inkscape:export-filename="C:\Users\Rodrigue\path3467.png"
       inkscape:export-xdpi="417.26706"
       inkscape:export-ydpi="417.26706"
       sodipodi:nodetypes="csscscsssssssscssaasssssssssssscssssssssccsscc" />
  </g>
</svg>
