<?xml version="1.0" encoding="UTF-8" standalone="no"?>
<!-- Created with Inkscape (http://www.inkscape.org/) -->

<svg
   xmlns:dc="http://purl.org/dc/elements/1.1/"
   xmlns:cc="http://creativecommons.org/ns#"
   xmlns:rdf="http://www.w3.org/1999/02/22-rdf-syntax-ns#"
   xmlns:svg="http://www.w3.org/2000/svg"
   xmlns="http://www.w3.org/2000/svg"
   xmlns:sodipodi="http://sodipodi.sourceforge.net/DTD/sodipodi-0.dtd"
   xmlns:inkscape="http://www.inkscape.org/namespaces/inkscape"
   width="500"
   height="500"
   viewBox="0 0 500 500"
   id="svg3365"
   version="1.1"
   inkscape:version="0.91 r13725"
   sodipodi:docname="papillon06.svg"
   inkscape:export-filename="C:\Users\Rodrigue\GitHub\INFO-F308-Projet_d_informatique_3-Project-201415\video\papillon\papillon06.png"
   inkscape:export-xdpi="90"
   inkscape:export-ydpi="90">
  <defs
     id="defs3367" />
  <sodipodi:namedview
     id="base"
     pagecolor="#000000"
     bordercolor="#666666"
     borderopacity="1.0"
     inkscape:pageopacity="0"
     inkscape:pageshadow="2"
     inkscape:zoom="0.7"
     inkscape:cx="254.38004"
     inkscape:cy="208.23152"
     inkscape:document-units="px"
     inkscape:current-layer="layer1"
     showgrid="false"
     units="px"
     borderlayer="true"
     inkscape:showpageshadow="false"
     inkscape:window-width="1846"
     inkscape:window-height="1058"
     inkscape:window-x="1912"
     inkscape:window-y="-8"
     inkscape:window-maximized="1" />
  <metadata
     id="metadata3370">
    <rdf:RDF>
      <cc:Work
         rdf:about="">
        <dc:format>image/svg+xml</dc:format>
        <dc:type
           rdf:resource="http://purl.org/dc/dcmitype/StillImage" />
        <dc:title></dc:title>
      </cc:Work>
    </rdf:RDF>
  </metadata>
  <g
     inkscape:label="Calque 1"
     inkscape:groupmode="layer"
     id="layer1"
     transform="translate(0,-552.36216)">
    <path
       inkscape:connector-curvature="0"
       id="path3375"
       d="m 142.23173,885.1793 c -24.99846,-26.45937 -27.72828,-30.33437 -29.15948,-41.39256 -1.22436,-9.46011 2.57508,-20.8515 9.86306,-29.5714 2.98026,-3.56571 2.36569,-4.02728 -7.79905,-5.85742 -9.7268,-1.75132 -11.4645,-2.90786 -14.66576,-9.76096 -6.188093,-13.24714 -22.244489,-25.87345 -24.414627,-19.19901 -1.320178,4.0604 -5.109704,1.12289 -5.074196,-3.9333 0.06689,-9.51127 -13.88668,-23.81278 -37.525011,-38.46085 -18.389108,-11.39528 -20.86808,-31.28967 -4.64192,-37.25239 9.623844,-3.53656 33.183731,-3.28854 58.215103,0.61282 27.699831,4.31725 91.626161,27.8792 123.206151,45.41126 13.5697,7.5334 25.19233,13.43214 25.82814,13.10835 0.6358,-0.32383 2.76253,-3.14968 4.72607,-6.27971 3.14053,-5.00633 2.46068,-7.36979 -5.65149,-19.64623 -5.07184,-7.67537 -17.42588,-21.73501 -27.4534,-31.24361 -19.21313,-18.21879 -22.88468,-23.13527 -9.78593,-13.10414 13.03114,9.97937 30.42849,28.34841 40.63737,42.90701 13.35061,19.03895 15.59234,18.71888 24.55579,-3.50589 6.69943,-16.611 27.37266,-48.5464 29.15758,-45.04164 0.41073,0.8066 -4.20528,8.89601 -10.25788,17.97648 -6.0526,9.08046 -13.32488,23.14099 -16.16062,31.24553 -5.08321,14.52791 -5.06431,14.81565 1.349,20.41394 l 6.50491,5.6783 11.04542,-8.52057 c 43.04111,-33.2025 96.3572,-56.82063 141.0324,-62.47495 30.61658,-3.87503 44.43143,-1.08826 48.61225,9.80614 3.89398,10.14689 -0.50665,20.47139 -13.20381,30.97782 -12.6909,10.5013 -18.47297,20.96667 -19.08364,34.54092 -0.39405,8.75921 -0.7488,9.30721 -4.35349,6.72459 -6.13892,-4.3983 -15.1864,4.2432 -17.80087,17.00216 -1.93473,9.44154 -2.8442,10.5331 -10.03175,12.04004 -4.34731,0.91143 -8.19163,2.54131 -8.54296,3.62186 -0.35135,1.08058 3.85708,6.87429 9.35203,12.87496 6.5833,7.18916 10.439,14.11923 11.30485,20.31884 1.18982,8.51901 0.48304,10.91332 -7.4757,25.32548 -10.78518,19.53045 -24.74855,38.89151 -27.43674,38.04263 -1.0975,-0.34571 -8.78631,2.38615 -17.08677,6.07256 -22.64727,10.05808 -36.38145,10.76567 -55.82661,2.87601 -8.77092,-3.55866 -18.74159,-8.21886 -22.157,-10.35594 l -6.20986,-3.88555 -2.30958,12.51618 c -2.70698,14.6701 -4.6631,14.88836 -12.66594,1.41282 -3.13151,-5.27304 -6.23285,-9.76265 -6.8918,-9.97691 -0.65899,-0.21415 -6.31431,3.79807 -12.56747,8.91629 -6.25312,5.11825 -15.13982,9.92552 -19.74813,10.6829 -6.63529,1.09044 -58.5862,-7.56731 -68.88789,-11.48041 -1.26235,-0.47965 -10.49675,-9.55262 -20.5208,-20.16248 z"
       style="fill:#ffffff;fill-opacity:1"
       inkscape:export-filename="C:\Users\Rodrigue\path3375.png"
       inkscape:export-xdpi="980.87683"
       inkscape:export-ydpi="980.87683" />
  </g>
</svg>
