<?xml version="1.0" encoding="UTF-8" standalone="no"?>
<!-- Created with Inkscape (http://www.inkscape.org/) -->

<svg
   xmlns:dc="http://purl.org/dc/elements/1.1/"
   xmlns:cc="http://creativecommons.org/ns#"
   xmlns:rdf="http://www.w3.org/1999/02/22-rdf-syntax-ns#"
   xmlns:svg="http://www.w3.org/2000/svg"
   xmlns="http://www.w3.org/2000/svg"
   xmlns:sodipodi="http://sodipodi.sourceforge.net/DTD/sodipodi-0.dtd"
   xmlns:inkscape="http://www.inkscape.org/namespaces/inkscape"
   width="500"
   height="500"
   viewBox="0 0 500 500"
   id="svg3365"
   version="1.1"
   inkscape:version="0.91 r13725"
   sodipodi:docname="papillon11.svg"
   inkscape:export-filename="C:\Users\Rodrigue\GitHub\INFO-F308-Projet_d_informatique_3-Project-201415\video\papillon\papillon11.png"
   inkscape:export-xdpi="90"
   inkscape:export-ydpi="90">
  <defs
     id="defs3367" />
  <sodipodi:namedview
     id="base"
     pagecolor="#000000"
     bordercolor="#666666"
     borderopacity="1.0"
     inkscape:pageopacity="0"
     inkscape:pageshadow="2"
     inkscape:zoom="0.7"
     inkscape:cx="254.38004"
     inkscape:cy="208.23152"
     inkscape:document-units="px"
     inkscape:current-layer="layer1"
     showgrid="false"
     units="px"
     borderlayer="true"
     inkscape:showpageshadow="false"
     inkscape:window-width="1846"
     inkscape:window-height="1058"
     inkscape:window-x="1912"
     inkscape:window-y="-8"
     inkscape:window-maximized="1" />
  <metadata
     id="metadata3370">
    <rdf:RDF>
      <cc:Work
         rdf:about="">
        <dc:format>image/svg+xml</dc:format>
        <dc:type
           rdf:resource="http://purl.org/dc/dcmitype/StillImage" />
        <dc:title></dc:title>
      </cc:Work>
    </rdf:RDF>
  </metadata>
  <g
     inkscape:label="Calque 1"
     inkscape:groupmode="layer"
     id="layer1"
     transform="translate(0,-552.36216)">
    <g
       id="g3609"
       transform="matrix(3.176708,1.218797,-1.218797,3.176708,294.39683,-3387.5366)"
       inkscape:export-filename="C:\Users\Rodrigue\g3609.png"
       inkscape:export-xdpi="1138.6205"
       inkscape:export-ydpi="1138.6205"
       style="fill:#ffffff">
      <path
         style="fill:#ffffff;fill-opacity:1"
         d="m 419.22794,1201.9683 c -2.07745,-0.8734 -4.15915,-2.2061 -4.62601,-2.9615 -0.46685,-0.7554 -2.97845,-1.3734 -5.58133,-1.3734 -6.32735,0 -8.86996,-2.961 -8.86996,-10.3296 0,-3.1668 0.57824,-7.2786 1.28497,-9.1375 0.70674,-1.8588 1.0722,-3.5925 0.81215,-3.8525 -0.26006,-0.2601 -3.22892,0.1515 -6.59747,0.9147 -8.58005,1.9438 -11.93696,0.3371 -16.31676,-7.8097 -3.02913,-5.6344 -4.66578,-7.1478 -11.0125,-10.1832 -9.0194,-4.3137 -16.49723,-10.0498 -17.59006,-13.4931 -2.04599,-6.4463 8.37268,-10.3145 23.21181,-8.6179 11.87774,1.358 22.7599,5.4415 38.09347,14.2944 6.63429,3.8304 12.36463,6.9643 12.73409,6.9643 0.36946,0 0.40198,-1.4112 0.0722,-3.1359 -0.44826,-2.3449 -0.21951,-2.8206 0.90679,-1.8859 2.40902,1.9994 3.15091,0.119 3.15611,-7.999 0.005,-8.4395 3.73988,-23.4358 6.02584,-24.1978 2.19172,-0.7305 1.79205,1.5242 -1.32814,7.4926 -3.17522,6.0737 -4.74307,22.6855 -2.36549,25.0631 1.9463,1.9463 2.2433,1.3906 5.7807,-10.8162 7.15508,-24.6907 20.70164,-41.8165 34.89934,-44.1205 4.0592,-0.6587 4.50069,-0.4462 4.67138,2.2486 0.34605,5.4635 -0.29945,10.4166 -2.26122,17.351 -1.66575,5.8881 -1.71625,8.0929 -0.35182,15.3591 1.4843,7.9046 1.42334,8.7157 -0.89253,11.875 -1.36711,1.865 -4.28897,4.3116 -6.49302,5.4369 l -4.00738,2.046 6.32521,4.5442 c 9.07935,6.5229 10.73614,12.4157 4.96034,17.6427 -1.35742,1.2285 -2.46806,3.297 -2.46806,4.5967 0,3.624 -5.60356,8.4994 -9.76875,8.4994 -4.63183,0 -11.89393,-4.7487 -18.66875,-12.2076 -4.28901,-4.7221 -5.3125,-5.355 -5.3125,-3.285 0,1.4102 1.67467,5.0923 3.7215,8.1824 5.35951,8.0915 7.59931,13.9457 6.16971,16.1261 -2.03292,3.1005 -6.76651,-3.7319 -8.61267,-12.4314 -0.89963,-4.2392 -2.07569,-7.9796 -2.61346,-8.312 -0.53779,-0.3323 -0.99939,3.531 -1.02578,8.5851 -0.0528,10.1117 -1.16136,14.1898 -4.68335,17.2287 -3.41227,2.9442 -7.10542,3.4956 -11.37865,1.6988 z"
         id="path3521"
         inkscape:connector-curvature="0" />
      <path
         style="fill:#ffffff;fill-opacity:1"
         d="m 415.05211,1142.1238 c -2.43587,-1.6552 -6.60353,-3.9181 -9.26148,-5.0287 -3.6091,-1.5079 -4.47289,-2.3789 -3.41179,-3.44 1.48126,-1.4812 6.54112,1.3568 14.6468,8.2153 4.76276,4.0299 3.77145,4.1572 -1.97352,0.2534 z"
         id="path3507"
         inkscape:connector-curvature="0" />
    </g>
  </g>
</svg>
