<?xml version="1.0" encoding="UTF-8" standalone="no"?>
<!-- Created with Inkscape (http://www.inkscape.org/) -->

<svg
   xmlns:dc="http://purl.org/dc/elements/1.1/"
   xmlns:cc="http://creativecommons.org/ns#"
   xmlns:rdf="http://www.w3.org/1999/02/22-rdf-syntax-ns#"
   xmlns:svg="http://www.w3.org/2000/svg"
   xmlns="http://www.w3.org/2000/svg"
   xmlns:sodipodi="http://sodipodi.sourceforge.net/DTD/sodipodi-0.dtd"
   xmlns:inkscape="http://www.inkscape.org/namespaces/inkscape"
   width="500"
   height="500"
   viewBox="0 0 500 500"
   id="svg3365"
   version="1.1"
   inkscape:version="0.91 r13725"
   sodipodi:docname="papillon05.svg"
   inkscape:export-filename="C:\Users\Rodrigue\GitHub\INFO-F308-Projet_d_informatique_3-Project-201415\video\papillon\papillon05.png"
   inkscape:export-xdpi="90"
   inkscape:export-ydpi="90">
  <defs
     id="defs3367" />
  <sodipodi:namedview
     id="base"
     pagecolor="#000000"
     bordercolor="#666666"
     borderopacity="1.0"
     inkscape:pageopacity="0"
     inkscape:pageshadow="2"
     inkscape:zoom="0.7"
     inkscape:cx="254.38004"
     inkscape:cy="208.23152"
     inkscape:document-units="px"
     inkscape:current-layer="layer1"
     showgrid="false"
     units="px"
     borderlayer="true"
     inkscape:showpageshadow="false"
     inkscape:window-width="1846"
     inkscape:window-height="1058"
     inkscape:window-x="1912"
     inkscape:window-y="-8"
     inkscape:window-maximized="1" />
  <metadata
     id="metadata3370">
    <rdf:RDF>
      <cc:Work
         rdf:about="">
        <dc:format>image/svg+xml</dc:format>
        <dc:type
           rdf:resource="http://purl.org/dc/dcmitype/StillImage" />
        <dc:title></dc:title>
      </cc:Work>
    </rdf:RDF>
  </metadata>
  <g
     inkscape:label="Calque 1"
     inkscape:groupmode="layer"
     id="layer1"
     transform="translate(0,-552.36216)">
    <path
       inkscape:connector-curvature="0"
       id="path3485"
       d="m 162.75938,951.05446 c -1.07629,-0.97928 -5.34408,-7.25056 -9.48396,-13.93615 l -7.52706,-12.15559 -13.38856,-4.91546 c -15.56851,-5.71602 -18.41925,-8.98674 -19.31103,-22.15651 -1.2113,-17.88888 4.50993,-31.48441 22.80213,-54.1852 4.96961,-6.16732 8.80366,-11.75852 8.52018,-12.42501 -0.28348,-0.66649 -3.90495,-1.30771 -8.04771,-1.42486 -21.77852,-0.6161 -40.720331,-7.16731 -51.162193,-17.69475 -7.730426,-7.79393 -8.922043,-12.07534 -8.803651,-31.63028 0.125879,-20.79176 -4.420103,-32.71061 -15.78274,-41.38005 -24.134131,-18.41384 -51.340254,-65.578 -48.754007,-84.51931 0.403172,-2.95299 2.356097,-4.74291 7.889917,-7.23148 13.907536,-6.25425 33.644994,-5.44514 52.379442,2.14721 17.925498,7.26458 49.903812,23.81967 59.034492,30.56209 15.18406,11.21247 38.68388,33.6266 53.6726,51.19291 14.1128,16.53972 17.48449,20.75509 37.13937,46.43252 16.28597,21.27619 20.29795,25.44883 22.76574,23.67719 6.48582,-4.6562 6.03839,-14.03619 -1.47054,-30.8269 -10.49495,-23.46786 -26.34278,-46.88704 -38.03789,-56.21058 -6.85444,-5.46448 -12.97877,-16.13577 -10.36388,-18.05838 2.37347,-1.74509 13.62399,2.92099 18.11222,7.5119 5.6141,5.74257 18.35772,30.98588 31.24865,61.89908 11.41661,27.37775 12.21619,28.76012 15.76141,27.24963 3.18503,-1.35709 4.68834,-4.14918 10.21483,-18.97183 7.77395,-20.85076 21.14063,-44.85233 34.23294,-61.4697 17.39626,-22.08007 24.63625,-26.93105 25.69146,-17.21384 0.50638,4.66307 -2.23096,8.22609 -11.46612,14.92475 -15.68795,11.37911 -29.304,29.83655 -39.54187,53.60154 -11.53602,26.77825 -11.74838,27.75598 -7.37897,33.9698 l 3.88266,5.52156 5.51752,-7.08123 c 3.03462,-3.89469 8.46223,-11.10981 12.06135,-16.03361 37.7495,-51.64368 77.68118,-86.26355 119.33235,-103.45844 29.51259,-12.18373 54.48552,-15.35058 70.57717,-8.95 9.71582,3.86437 11.29806,7.41988 9.01067,20.24663 -1.47223,8.25565 -2.84827,11.08235 -11.53541,23.69628 -5.42508,7.87735 -15.98191,21.64349 -23.45963,30.59139 l -13.59589,16.26891 -3.03316,23.162 c -1.66828,12.73911 -4.02434,25.62036 -5.2357,28.62502 -3.38528,8.39678 -12.47337,15.46722 -27.19495,21.15739 -10.50923,4.06196 -15.26227,4.90263 -22.02614,3.8957 -10.39985,-1.5482 -10.35405,-0.97729 1.46121,18.21993 16.03287,26.04978 22.49543,45.93016 18.30744,56.31801 -1.52431,3.78087 -10.05344,9.66634 -22.1222,15.26511 -9.64419,4.47401 -13.10348,7.22726 -17.05962,13.57791 -5.56299,8.93008 -11.72451,13.49649 -22.03599,16.33143 -12.99086,3.57137 -19.86561,1.70401 -30.11922,-8.18121 -14.68581,-14.15814 -21.0921,-24.47428 -34.03913,-54.81354 l -12.71084,-29.78598 -1.50744,6.87442 c -2.23557,10.19512 -1.44156,20.88695 3.25601,43.84585 6.50981,31.81589 5.82581,42.55325 -3.30347,51.85709 -3.62775,3.69716 -4.18562,3.74301 -7.73726,0.63641 -8.85237,-7.74316 -10.1576,-21.79673 -4.97765,-53.59418 4.39595,-26.98487 5.30226,-39.06467 2.89995,-38.65143 -0.98362,0.1692 -1.69651,0.89105 -1.58419,1.60408 0.63018,4.00185 -11.04707,34.75556 -18.01847,47.45421 -19.70258,35.88892 -36.12461,45.22138 -61.29649,34.83406 -5.88604,-2.4286 -11.58232,-5.21736 -12.65868,-6.19651 z"
       style="fill:#ffffff;fill-opacity:1"
       inkscape:export-filename="C:\Users\Rodrigue\path3485.png"
       inkscape:export-xdpi="418.34482"
       inkscape:export-ydpi="418.34482" />
  </g>
</svg>
