<?xml version="1.0" encoding="UTF-8" standalone="no"?>
<!-- Created with Inkscape (http://www.inkscape.org/) -->

<svg
   xmlns:dc="http://purl.org/dc/elements/1.1/"
   xmlns:cc="http://creativecommons.org/ns#"
   xmlns:rdf="http://www.w3.org/1999/02/22-rdf-syntax-ns#"
   xmlns:svg="http://www.w3.org/2000/svg"
   xmlns="http://www.w3.org/2000/svg"
   xmlns:sodipodi="http://sodipodi.sourceforge.net/DTD/sodipodi-0.dtd"
   xmlns:inkscape="http://www.inkscape.org/namespaces/inkscape"
   width="500"
   height="500"
   viewBox="0 0 500 500"
   id="svg3365"
   version="1.1"
   inkscape:version="0.91 r13725"
   sodipodi:docname="papillon09.svg"
   inkscape:export-filename="C:\Users\Rodrigue\GitHub\INFO-F308-Projet_d_informatique_3-Project-201415\video\papillon\papillon09.png"
   inkscape:export-xdpi="90"
   inkscape:export-ydpi="90">
  <defs
     id="defs3367" />
  <sodipodi:namedview
     id="base"
     pagecolor="#000000"
     bordercolor="#666666"
     borderopacity="1.0"
     inkscape:pageopacity="0"
     inkscape:pageshadow="2"
     inkscape:zoom="0.7"
     inkscape:cx="254.38004"
     inkscape:cy="208.23152"
     inkscape:document-units="px"
     inkscape:current-layer="layer1"
     showgrid="false"
     units="px"
     borderlayer="true"
     inkscape:showpageshadow="false"
     inkscape:window-width="1846"
     inkscape:window-height="1058"
     inkscape:window-x="1912"
     inkscape:window-y="-8"
     inkscape:window-maximized="1" />
  <metadata
     id="metadata3370">
    <rdf:RDF>
      <cc:Work
         rdf:about="">
        <dc:format>image/svg+xml</dc:format>
        <dc:type
           rdf:resource="http://purl.org/dc/dcmitype/StillImage" />
        <dc:title></dc:title>
      </cc:Work>
    </rdf:RDF>
  </metadata>
  <g
     inkscape:label="Calque 1"
     inkscape:groupmode="layer"
     id="layer1"
     transform="translate(0,-552.36216)">
    <g
       id="g3626"
       transform="matrix(2.9699621,0.56460507,-0.56460507,2.9699621,-2094.9805,-3148.8181)"
       inkscape:export-filename="C:\Users\Rodrigue\g3626.png"
       inkscape:export-xdpi="965.91077"
       inkscape:export-ydpi="965.91077"
       style="fill:#ffffff">
      <path
         style="fill:#ffffff;fill-opacity:1"
         d="m 978.32776,1206.7481 c -10.43675,-2.7647 -15.5305,-16.6297 -11.36887,-30.9453 1.89475,-6.5177 2.63512,-7.4337 9.44238,-11.6833 4.0625,-2.5362 7.41175,-5.0331 7.44287,-5.5487 0.0312,-0.5156 -1.57175,-0.9375 -3.56187,-0.9375 -6.41951,0 -20.54463,-5.0785 -28.62813,-10.2929 -9.91487,-6.3957 -21.97287,-19.4545 -24.80062,-26.8589 -2.08675,-5.4638 -2.07963,-5.7312 0.19587,-7.3951 8.182,-5.9829 32.84513,-5.1745 45.7515,1.4996 5.66925,2.9317 17.96375,12.5555 21.6765,16.9679 4.03613,4.7968 5.1665,3.994 3.11763,-2.2143 -1.15288,-3.4929 -1.185,-4.8344 -0.125,-5.1879 2.33262,-0.7775 1.63537,-4.1485 -2.69088,-13.008 -2.2465,-4.6006 -3.44662,-7.8354 -2.66712,-7.1884 0.77949,0.647 3.2325,5.1142 5.45087,9.9272 2.2185,4.8129 4.52621,8.7508 5.12841,8.7508 0.6021,0 1.2915,-3.7969 1.532,-8.4375 l 0.4373,-8.4375 0.2448,8.3983 c 0.2009,6.8909 0.5814,8.2691 2.1199,7.6787 1.2878,-0.4942 1.9407,-2.7324 2.0851,-7.1482 0.1932,-5.9134 0.251,-6.0279 0.7205,-1.4288 0.2806,2.75 -0.1584,7.0282 -0.9758,9.5071 -1.1233,3.4073 -1.1358,5.1612 -0.051,7.1875 2.1607,4.0373 3.3544,3.2846 5.1653,-3.2571 2.9414,-10.6246 9.9954,-23.9332 14.7757,-27.8768 2.4918,-2.0555 9.8743,-6.3618 16.4056,-9.5695 9.032,-4.4358 13.3421,-5.8511 18.0032,-5.9116 8.869,-0.1152 9.5667,2.6973 5.226,21.0675 -3.7377,15.8183 -8.4792,26.8283 -14.5137,33.7013 -4.1405,4.7157 -11.9885,9.5266 -15.5408,9.5266 -1.0586,0 -1.9248,0.5073 -1.9248,1.1273 0,0.62 3.5157,1.527 7.8126,2.0155 7.0489,0.8015 8.3151,1.4092 12.9542,6.2165 5.3395,5.5331 9.2368,14.4757 9.2287,21.1759 -0.012,8.1785 -8.3345,15.7149 -17.3584,15.7149 -5.7904,0 -15.5319,-4.1319 -21.7454,-9.2235 -5.4153,-4.4374 -8.0532,-5.7627 -6.5144,-3.2729 0.4261,0.6895 0.3955,3.7832 -0.067,6.8749 -1.1346,7.5665 -4.1108,7.4907 -8.347,-0.2125 l -3.2083,-5.834 -3.1827,6.2809 c -3.3898,6.6893 -14.72589,17.8757 -18.14389,17.904 -1.12875,0.01 -3.17725,0.2374 -4.55225,0.5068 -1.375,0.2693 -3.6015,0.1978 -4.94787,-0.159 z"
         id="path3525"
         inkscape:connector-curvature="0" />
      <path
         style="fill:#ffffff;fill-opacity:1"
         d="m 992.68564,1119.6003 c -1.97075,-5.1835 -1.42987,-6.9013 0.65812,-2.0903 1.01488,2.3384 1.57113,4.5258 1.23601,4.8608 -0.335,0.3351 -1.18738,-0.9116 -1.89413,-2.7705 z"
         id="path3497"
         inkscape:connector-curvature="0" />
      <path
         style="fill:#ffffff;fill-opacity:1"
         d="m 988.57014,1108.5629 -2.20563,-4.0546 2.51813,2.951 c 2.14262,2.511 3.28787,5.1935 2.2055,5.1661 -0.17188,0 -1.305,-1.8325 -2.518,-4.0625 z"
         id="path3493"
         inkscape:connector-curvature="0" />
      <path
         style="fill:#ffffff;fill-opacity:1"
         d="m 985.05602,1097.9458 -3.03038,-3.4375 3.4375,3.0304 c 1.89063,1.6667 3.4375,3.2136 3.4375,3.4375 0,0.9804 -1.01225,0.1825 -3.84462,-3.0304 z"
         id="path3483"
         inkscape:connector-curvature="0" />
      <path
         style="fill:#ffffff;fill-opacity:1"
         d="m 973.90064,1092.6333 c -2.5745,-0.8245 -2.6845,-1.0194 -0.625,-1.1062 1.375,-0.058 3.34375,0.4398 4.375,1.1062 2.19012,1.4154 0.66962,1.4154 -3.75,0 z"
         id="path3481"
         inkscape:connector-curvature="0" />
      <path
         style="fill:#ffffff;fill-opacity:1"
         d="m 1010.1984,1092.0083 c 2.5172,-3.444 4.8039,-5.2691 10.215,-8.1531 6.778,-3.6127 7.5841,-2.9945 0.9872,0.7571 -3.0937,1.7594 -7.291,4.7057 -9.3272,6.5474 -2.2576,2.042 -2.9893,2.3731 -1.875,0.8486 z"
         id="path3479"
         inkscape:connector-curvature="0" />
      <path
         style="fill:#ffffff;fill-opacity:1"
         d="m 967.41626,1090.5294 c 0.90238,-0.3611 1.9805,-0.3167 2.39588,0.099 0.41537,0.4154 -0.323,0.7108 -1.64063,0.6565 -1.45625,-0.06 -1.75237,-0.3561 -0.75525,-0.7552 z"
         id="path3477"
         inkscape:connector-curvature="0" />
    </g>
  </g>
</svg>
