<?xml version="1.0" encoding="UTF-8" standalone="no"?>
<!-- Created with Inkscape (http://www.inkscape.org/) -->

<svg
   xmlns:dc="http://purl.org/dc/elements/1.1/"
   xmlns:cc="http://creativecommons.org/ns#"
   xmlns:rdf="http://www.w3.org/1999/02/22-rdf-syntax-ns#"
   xmlns:svg="http://www.w3.org/2000/svg"
   xmlns="http://www.w3.org/2000/svg"
   xmlns:sodipodi="http://sodipodi.sourceforge.net/DTD/sodipodi-0.dtd"
   xmlns:inkscape="http://www.inkscape.org/namespaces/inkscape"
   width="500"
   height="500"
   viewBox="0 0 500 500"
   id="svg3365"
   version="1.1"
   inkscape:version="0.91 r13725"
   sodipodi:docname="papillon02.svg"
   inkscape:export-filename="C:\Users\Rodrigue\GitHub\INFO-F308-Projet_d_informatique_3-Project-201415\video\papillon\papillon02.png"
   inkscape:export-xdpi="90"
   inkscape:export-ydpi="90">
  <defs
     id="defs3367" />
  <sodipodi:namedview
     id="base"
     pagecolor="#000000"
     bordercolor="#666666"
     borderopacity="1.0"
     inkscape:pageopacity="0"
     inkscape:pageshadow="2"
     inkscape:zoom="1.4"
     inkscape:cx="131.83292"
     inkscape:cy="240.87572"
     inkscape:document-units="px"
     inkscape:current-layer="layer1"
     showgrid="false"
     units="px"
     borderlayer="true"
     inkscape:showpageshadow="false"
     inkscape:window-width="1846"
     inkscape:window-height="1058"
     inkscape:window-x="1912"
     inkscape:window-y="-8"
     inkscape:window-maximized="1" />
  <metadata
     id="metadata3370">
    <rdf:RDF>
      <cc:Work
         rdf:about="">
        <dc:format>image/svg+xml</dc:format>
        <dc:type
           rdf:resource="http://purl.org/dc/dcmitype/StillImage" />
        <dc:title></dc:title>
      </cc:Work>
    </rdf:RDF>
  </metadata>
  <g
     inkscape:label="Calque 1"
     inkscape:groupmode="layer"
     id="layer1"
     transform="translate(0,-552.36216)">
    <path
       inkscape:connector-curvature="0"
       id="path3379"
       d="m 100.73944,924.25748 c -2.158012,-11.3688 -5.199112,-15.45702 -14.305599,-19.23133 -4.248007,-1.7606 -5.941395,-7.43794 -7.619322,-25.54427 -1.186575,-12.80426 -1.103,-25.87582 0.185735,-29.04781 1.288444,-3.17214 7.372403,-10.32075 13.519282,-15.88604 6.146912,-5.56529 11.356864,-10.59016 11.577724,-11.1664 0.221,-0.57622 -9.619897,-4.89117 -21.868346,-9.58877 -12.248739,-4.69675 -25.145703,-11.18698 -28.660567,-14.42078 -3.514898,-3.23388 -11.995974,-18.80859 -18.846793,-34.61055 -18.57833,-42.85204 -22.822614,-93.46962 -8.54473,-101.905 13.172032,-7.78205 56.305301,-4.39043 85.251406,6.70344 33.54743,12.85734 85.1287,48.2793 111.02944,76.2463 7.93619,8.5693 15.17723,15.24711 16.09123,14.83965 0.91395,-0.40756 0.35563,-6.62015 -1.24075,-13.80579 -2.04148,-9.1891 -1.72056,-14.92931 1.08182,-19.34961 3.61808,-5.70699 2.63137,-8.16444 -10.73406,-26.73372 -12.98307,-18.03796 -24.50862,-44.41415 -22.1251,-50.63324 0.45984,-1.19981 4.55043,6.12187 9.09018,16.27044 6.8026,15.20705 21.47675,38.81181 33.33207,53.61777 1.46712,1.83227 4.79899,0.77894 8.66455,-2.73913 10.0815,-9.17535 33.05309,-48.09313 35.89385,-60.8103 1.91323,-8.56523 2.78456,-10.04256 3.50402,-5.94124 1.98526,11.31734 -5.27728,30.41264 -19.27651,50.68302 -16.90926,24.48429 -16.50363,23.38235 -10.71344,29.1038 2.77913,2.74616 4.04479,7.47265 3.03781,11.34405 -3.25511,12.5143 -3.62392,19.04576 -1.12939,20.00182 1.37325,0.52628 3.24485,-0.99471 4.15902,-3.38004 3.35089,-8.7431 42.46017,-42.24653 68.17073,-58.39924 29.15423,-18.31627 66.79827,-34.46972 88.53202,-37.99008 19.96734,-3.23421 48.38756,0.30608 51.84574,6.45842 9.00539,16.02115 4.73531,54.00047 -10.66375,94.84583 -10.9712,29.10071 -13.00148,32.78154 -23.26137,42.17153 -7.83048,7.16654 -15.8546,11.27778 -26.44704,13.55035 -8.36326,1.7943 -16.07366,3.64929 -17.13425,4.12218 -1.06054,0.47285 4.28862,7.40711 11.88711,15.40939 14.54245,15.31537 19.52625,28.75504 15.15069,40.85667 -1.27466,3.52545 -2.42821,11.21492 -2.56342,17.08772 -0.23217,10.07713 -0.71943,10.85066 -8.66278,13.74758 -6.89356,2.51405 -8.83723,4.83874 -10.73915,12.84476 -2.1025,8.85031 -3.21179,9.84845 -11.72484,10.55034 -6.18092,0.50956 -11.32442,3.29113 -15.01127,8.11786 -4.3127,5.64611 -6.54277,6.5975 -9.65178,4.11751 -6.23511,-4.97365 -23.01409,-4.68306 -31.06647,0.53798 -6.43589,4.17295 -7.76879,4.09287 -11.93132,-0.7167 -2.70678,-3.12749 -9.94644,-6.87142 -17.1401,-8.86385 -16.53393,-4.57943 -25.73476,-17.52033 -31.2766,-43.99029 -2.26888,-10.8371 -5.04111,-20.09168 -6.16051,-20.56568 -1.11949,-0.47374 -5.40692,10.32565 -9.5278,23.99929 -5.18476,17.20372 -8.34045,24.53618 -10.24542,23.80609 -2.46712,-0.94554 -9.46668,-18.52398 -16.46103,-41.33966 -1.39435,-4.54838 -3.34062,-7.91321 -4.32504,-7.4775 -0.98442,0.43573 -4.18651,10.62777 -7.11581,22.64896 -7.44632,30.55832 -12.66844,38.14105 -28.43587,41.28976 -7.25647,1.44911 -15.06132,5.31264 -18.17242,8.99564 -4.54067,5.37529 -6.07667,5.73518 -9.17899,2.15066 -6.54127,-7.55801 -14.9713,-8.85877 -26.23194,-4.04753 -9.66425,4.1292 -11.16705,4.07081 -12.71387,-0.49387 -2.26407,-6.68102 -15.59601,-11.7753 -23.1538,-8.84869 -5.39844,2.09121 -6.04813,1.38833 -7.94271,-8.59296 z"
       style="fill:#ffffff;fill-opacity:1"
       inkscape:export-filename="C:\Users\Rodrigue\path3379.png"
       inkscape:export-xdpi="417.26706"
       inkscape:export-ydpi="417.26706" />
  </g>
</svg>
