<?xml version="1.0" encoding="UTF-8" standalone="no"?>
<!-- Created with Inkscape (http://www.inkscape.org/) -->

<svg
   xmlns:dc="http://purl.org/dc/elements/1.1/"
   xmlns:cc="http://creativecommons.org/ns#"
   xmlns:rdf="http://www.w3.org/1999/02/22-rdf-syntax-ns#"
   xmlns:svg="http://www.w3.org/2000/svg"
   xmlns="http://www.w3.org/2000/svg"
   xmlns:sodipodi="http://sodipodi.sourceforge.net/DTD/sodipodi-0.dtd"
   xmlns:inkscape="http://www.inkscape.org/namespaces/inkscape"
   width="103.58755mm"
   height="95.818062mm"
   viewBox="0 0 367.04252 339.51282"
   id="svg2"
   version="1.1"
   inkscape:version="0.48.4 r9939"
   sodipodi:docname="abeille_triste.svg"
   inkscape:export-filename="C:\Users\Nico\Documents\GitHub\INFO-F308-Projet_d_informatique_3-Project-201415\video\abeille\abeille_triste.png"
   inkscape:export-xdpi="132.65186"
   inkscape:export-ydpi="132.65186">
  <defs
     id="defs4" />
  <sodipodi:namedview
     id="base"
     pagecolor="#ffffff"
     bordercolor="#666666"
     borderopacity="1.0"
     inkscape:pageopacity="0.0"
     inkscape:pageshadow="2"
     inkscape:zoom="0.98994949"
     inkscape:cx="167.73934"
     inkscape:cy="137.54871"
     inkscape:document-units="px"
     inkscape:current-layer="layer1"
     showgrid="false"
     fit-margin-top="0"
     fit-margin-left="0"
     fit-margin-right="0"
     fit-margin-bottom="0"
     borderlayer="true"
     inkscape:showpageshadow="false"
     inkscape:window-width="1920"
     inkscape:window-height="1019"
     inkscape:window-x="-9"
     inkscape:window-y="-9"
     inkscape:window-maximized="1" />
  <metadata
     id="metadata7">
    <rdf:RDF>
      <cc:Work
         rdf:about="">
        <dc:format>image/svg+xml</dc:format>
        <dc:type
           rdf:resource="http://purl.org/dc/dcmitype/StillImage" />
        <dc:title></dc:title>
      </cc:Work>
    </rdf:RDF>
  </metadata>
  <g
     inkscape:label="Calque 1"
     inkscape:groupmode="layer"
     id="layer1"
     transform="translate(-236.47875,-285.46286)">
    <path
       style="fill:#3a2213;fill-opacity:1;fill-rule:evenodd;stroke:#000000;stroke-width:1.42909205px;stroke-linecap:butt;stroke-linejoin:miter;stroke-opacity:1"
       d="m 268.99853,480.35916 c -6.57868,4.48735 -18.39624,-3.92457 -31.80524,-32.66476 13.32379,55.37932 26.64758,61.7715 39.97136,83.38123 z"
       id="path5770"
       inkscape:connector-curvature="0"
       sodipodi:nodetypes="cccc" />
    <path
       style="fill:#000000;fill-opacity:1;fill-rule:evenodd;stroke:none"
       d="m 334.8369,555.48095 c -1.86765,9.41243 -7.25496,16.32038 -16.73553,21.45882 -6.81315,1.01737 -5.71421,-5.84299 -13.25102,-3.72421 -7.96219,2.48662 -19.51234,8.47523 -13.60723,14.38023 7.49054,7.49045 16.54463,8.13297 25.39802,2.43232 17.02049,-6.41548 23.63121,-20.64424 30.40847,-33.56166 z"
       id="path5701-0-6-4"
       inkscape:connector-curvature="0"
       sodipodi:nodetypes="cccsccc" />
    <path
       style="fill:#000000;fill-opacity:1;fill-rule:evenodd;stroke:none"
       d="m 360.86371,569.74972 c -1.86765,9.41229 -7.25497,16.32038 -16.73554,21.45868 -6.81314,1.01751 -5.7142,-5.84299 -13.25101,-3.72408 -7.9622,2.48662 -19.51234,8.47509 -13.60723,14.3801 7.49054,7.49059 16.54463,8.13311 25.39802,2.43231 17.02047,-6.41548 23.6312,-20.64409 30.40846,-33.56165 z"
       id="path5701-0-2"
       inkscape:connector-curvature="0"
       sodipodi:nodetypes="cccsccc" />
    <path
       style="fill:#000000;fill-opacity:1;fill-rule:evenodd;stroke:none"
       d="m 405.5021,583.12788 c -1.86767,9.41243 -7.25497,16.32037 -16.73554,21.45882 -6.81314,1.01737 -5.7142,-5.84299 -13.25103,-3.72422 -7.96218,2.48662 -19.51233,8.47523 -13.60723,14.3801 7.49056,7.49058 16.54463,8.1331 25.39803,2.43246 17.02048,-6.41548 23.6312,-20.64424 30.40847,-33.56166 z"
       id="path5701-0-6"
       inkscape:connector-curvature="0"
       sodipodi:nodetypes="cccsccc" />
    <path
       style="fill:#000000;fill-opacity:1;fill-rule:evenodd;stroke:none"
       d="m 443.57595,586.63073 c -1.86771,9.41243 -7.25505,16.32037 -16.73555,21.45881 -6.8132,1.01738 -5.71421,-5.84298 -13.25109,-3.72421 -7.9622,2.48662 -19.51232,8.47523 -13.60721,14.3801 7.49056,7.49058 16.5447,8.1331 25.39801,2.43245 17.02049,-6.41548 23.63124,-20.64423 30.40855,-33.56165 z"
       id="path5701-0"
       inkscape:connector-curvature="0"
       sodipodi:nodetypes="cccsccc" />
    <path
       style="fill:#000000;fill-opacity:1;fill-rule:evenodd;stroke:none"
       d="m 502.13102,366.69281 c 4.67026,-4.7775 14.1862,-13.95512 17.13732,-16.52804 7.58549,-6.61363 13.49472,-10.17777 18.11881,-10.92858 2.13603,-0.34667 6.18917,0.52569 7.93218,1.7071 1.1263,0.7635 3.08993,2.53734 4.14033,3.7399 1.31233,3.14577 -2.65371,7.12902 3.54123,9.56304 4.76185,1.0371 9.21883,-4.77512 6.91886,-9.05085 -1.14155,-2.1222 -4.79878,-2.86607 -7.14233,-2.43632 -0.96591,0.17708 -1.95521,-0.66058 -2.76274,-1.59378 -7.02025,-8.11428 -15.17805,-7.73599 -26.8082,1.24267 -4.4444,3.43123 -12.06683,10.46653 -20.18345,18.62863 -0.1039,-0.0226 2.59787,-5.7548 3.58477,-8.05976 7.75142,-17.54022 15.21728,-28.22997 23.10761,-31.33647 4.20675,-1.6562 8.31693,-1.27953 12.76791,1.1703 2.13798,2.44189 -0.86049,3.75311 1.89769,6.20121 3.01306,2.52323 8.21857,0.73717 9.05586,-3.10728 1.06209,-4.87664 -1.69421,-5.32147 -6.59252,-6.10878 l -4.02432,-0.64684 c -3.02714,-1.70914 -6.70482,-2.59874 -9.60418,-2.32281 -10.18208,0.96883 -19.73596,12.27035 -29.53083,34.93288 -2.3167,5.36028 -6.05031,14.63478 -5.9526,14.78697 1.21751,2.74718 2.56703,2.12785 4.39872,0.14626 z"
       id="path5701"
       inkscape:connector-curvature="0"
       sodipodi:nodetypes="ccccccsccccccccssccccc"
       inkscape:transform-center-x="-29.17982"
       inkscape:transform-center-y="-23.024721" />
    <ellipse
       style="fill:#3a2213;fill-opacity:1;fill-rule:evenodd;stroke:#000000;stroke-width:1.42909205;stroke-linecap:round;stroke-linejoin:round;stroke-miterlimit:4;stroke-opacity:1;stroke-dasharray:none;stroke-dashoffset:0"
       id="path16200-8"
       cx="411.57672"
       cy="481.21881"
       rx="167.62209"
       ry="118.61464"
       d="m 579.19881,481.21881 c 0,65.50906 -75.04697,118.61464 -167.62209,118.61464 -92.57512,0 -167.62208,-53.10558 -167.62208,-118.61464 0,-65.50906 75.04696,-118.61464 167.62208,-118.61464 92.57512,0 167.62209,53.10558 167.62209,118.61464 z"
       sodipodi:cx="411.57672"
       sodipodi:cy="481.21881"
       sodipodi:rx="167.62209"
       sodipodi:ry="118.61464"
       transform="matrix(-1,0,0,1,840.01982,0)" />
    <path
       style="fill:#f9d209;fill-opacity:1;fill-rule:evenodd;stroke:#000000;stroke-width:1.42909205;stroke-linecap:round;stroke-linejoin:round;stroke-miterlimit:4;stroke-opacity:1;stroke-dasharray:none;stroke-dashoffset:0"
       d="m 426.54265,362.60427 c -2.63025,5.90486 -5.33393,12.13942 -7.1706,16.7631 -23.28038,58.60621 -24.79765,122.90106 -4.60551,195.14123 1.11468,3.98774 4.62009,15.78275 7.49156,25.32494 a 167.62144,118.75764 0 0 1 -49.35093,-6.61413 c -0.34484,-1.22273 -0.79715,-2.72599 -1.42624,-4.7503 -5.31462,-17.10008 -10.46262,-35.66613 -12.88135,-46.44434 -10.68899,-47.63436 -10.40874,-87.22821 0.89604,-126.26143 3.05267,-10.54141 6.62753,-19.84394 14.00333,-36.43513 2.08046,-4.67984 3.8068,-8.68902 4.90405,-11.34213 a 167.62144,118.75764 0 0 1 48.13965,-5.38181 z m 51.60617,5.29507 A 167.62144,118.75764 0 0 1 596.06517,481.30979 167.62144,118.75764 0 0 1 472.57209,595.85452 c -0.75485,-2.8266 -2.24667,-7.9802 -4.08362,-14.01925 -9.47884,-31.16321 -13.58618,-49.36556 -16.80291,-74.49099 -1.55042,-12.10899 -1.55413,-45.90315 0,-56.89787 3.56386,-25.31651 8.61596,-42.11978 21.09574,-70.17371 2.36385,-5.31379 4.36815,-9.94705 5.36752,-12.37336 z m -163.80904,26.61884 c -8.40761,25.2965 -12.14796,48.4838 -12.79205,76.31565 -0.72241,31.22323 3.12298,61.48326 12.47379,97.1361 a 167.62144,118.75764 0 0 1 -53.1999,-86.66014 167.62144,118.75764 0 0 1 53.51816,-86.79161 z"
       id="path16200-6-1"
       inkscape:connector-curvature="0" />
    <circle
       style="fill:#ffffff;fill-opacity:1;fill-rule:evenodd;stroke:#000000;stroke-width:1.64245999;stroke-linecap:square;stroke-linejoin:round;stroke-miterlimit:4;stroke-opacity:1;stroke-dasharray:none;stroke-dashoffset:0"
       id="path5611"
       cx="268.73608"
       cy="416.13162"
       r="31.436108"
       d="m 300.17219,416.13162 c 0,17.36169 -14.07442,31.43611 -31.43611,31.43611 -17.36168,0 -31.4361,-14.07442 -31.4361,-31.43611 0,-17.36168 14.07442,-31.43611 31.4361,-31.43611 17.36169,0 31.43611,14.07443 31.43611,31.43611 z"
       sodipodi:cx="268.73608"
       sodipodi:cy="416.13162"
       sodipodi:rx="31.436108"
       sodipodi:ry="31.436108"
       transform="matrix(-1,0,0,1,840.01982,0)" />
    <ellipse
       style="fill:#000000;fill-opacity:1;fill-rule:evenodd;stroke:none"
       id="path5628-7"
       cx="263.75449"
       cy="416.33432"
       rx="2.4313171"
       ry="4.8626342"
       d="m 266.1858,416.33432 c 0,2.68556 -1.08853,4.86263 -2.43131,4.86263 -1.34278,0 -2.43132,-2.17707 -2.43132,-4.86263 0,-2.68556 1.08854,-4.86263 2.43132,-4.86263 1.34278,0 2.43131,2.17707 2.43131,4.86263 z"
       sodipodi:cx="263.75449"
       sodipodi:cy="416.33432"
       sodipodi:rx="2.4313171"
       sodipodi:ry="4.8626342"
       transform="matrix(-1,0,0,1,842.51982,22.14286)" />
    <path
       style="fill:#ffffff;fill-opacity:1;fill-rule:evenodd;stroke:#000000;stroke-width:1.42909205px;stroke-linecap:round;stroke-linejoin:round;stroke-opacity:1"
       d="m 401.28779,354.31582 c 6.2043,-3.12643 -36.90996,-84.15423 -52.45239,-64.0612 l -19.56643,25.29493 c -19.44211,25.13444 70.85372,45.31622 72.01882,38.76627 z"
       id="path5660"
       inkscape:connector-curvature="0"
       sodipodi:nodetypes="cssc" />
    <path
       style="fill:none;stroke:#000000;stroke-width:1.42909205px;stroke-linecap:round;stroke-linejoin:round;stroke-opacity:1"
       d="M 400.47035,353.55983 350.78002,316.70497"
       id="path5662"
       inkscape:connector-curvature="0"
       sodipodi:nodetypes="cc" />
    <path
       style="fill:#ffffff;fill-opacity:1;fill-rule:evenodd;stroke:#000000;stroke-width:1.42909205px;stroke-linecap:round;stroke-linejoin:round;stroke-opacity:1"
       d="m 406.45675,353.43421 c -6.20426,-3.12642 36.91001,-84.15423 52.45239,-64.06119 l 19.56641,25.29493 c 19.44223,25.13444 -70.85367,45.31622 -72.0188,38.76626 z"
       id="path5660-6"
       inkscape:connector-curvature="0"
       sodipodi:nodetypes="cssc" />
    <path
       style="fill:none;stroke:#000000;stroke-width:1.42909205px;stroke-linecap:round;stroke-linejoin:round;stroke-opacity:1"
       d="m 407.27419,352.67822 49.69038,-36.85485"
       id="path5662-7"
       inkscape:connector-curvature="0"
       sodipodi:nodetypes="cc" />
    <path
       style="fill:#000000;fill-opacity:1;fill-rule:evenodd;stroke:none"
       d="m 579.83349,373.75006 c -2.50607,-1.90464 -9.30978,-6.31002 -13.20976,-3.88932 -2.7752,1.72265 -2.15947,6.9497 -1.69137,9.652 0.55762,3.21847 2.44074,0.25215 6.51215,0.72275 6.12352,0.70796 13.88029,0.199 14.70735,-0.15935 0.51053,-4.32388 -3.68563,-4.47551 -6.31837,-6.32608 z"
       id="path5703"
       inkscape:connector-curvature="0"
       sodipodi:nodetypes="casccc" />
    <path
       style="fill:#000000;fill-opacity:1;fill-rule:evenodd;stroke:none"
       d="m 531.95555,374.826 c 2.37065,-2.07096 8.8587,-6.92904 12.91445,-4.77954 2.886,1.52976 2.62752,6.78661 2.34431,9.51465 -0.33723,3.24897 -2.41792,0.41753 -6.44786,1.16413 -6.06116,1.12323 -13.83453,1.14323 -14.68404,0.842 -0.8036,-4.27911 3.37239,-4.71584 5.87313,-6.74128 z"
       id="path5703-0"
       inkscape:connector-curvature="0"
       sodipodi:nodetypes="casccc" />
    <path
       style="fill:#f9d209;fill-opacity:1;fill-rule:evenodd;stroke:#000000;stroke-width:1.00000012;stroke-linecap:round;stroke-linejoin:round;stroke-miterlimit:4;stroke-opacity:1;stroke-dasharray:none;stroke-dashoffset:0"
       d="m 573.62539,415.09507 c 9.44949,-0.94478 19.66916,-3.68161 27.4656,-6.84874 l -0.35364,-1.52702 c -1.23071,-5.31421 -4.50552,-10.65394 -8.93746,-14.57291 -4.27297,-3.77841 -9.75966,-6.40752 -16.03281,-7.6826 -2.7096,-0.55074 -9.66448,-0.55148 -12.36991,-8.8e-4 -6.65197,1.35273 -11.81821,3.88933 -16.37433,8.0397 -3.79523,3.45725 -6.57198,7.68793 -8.01833,12.21681 -0.75904,2.37676 -1.30663,5.47264 -1.18056,6.67449 0.0871,0.83009 0.0949,0.83465 2.33224,1.37356 3.20118,0.77105 8.07019,1.64332 11.75254,2.10543 4.36676,0.54799 17.27416,0.6803 21.71666,0.22259 z"
       id="path3355-2"
       inkscape:connector-curvature="0"
       sodipodi:nodetypes="ccssscsscsscc" />
    <circle
       style="fill:#ffffff;fill-opacity:1;fill-rule:evenodd;stroke:#000000;stroke-width:1.64245999;stroke-linecap:square;stroke-linejoin:round;stroke-miterlimit:4;stroke-opacity:1;stroke-dasharray:none;stroke-dashoffset:0"
       id="path5611-8"
       cx="307.15802"
       cy="416.13162"
       r="31.436108"
       d="m 338.59413,416.13162 c 0,17.36169 -14.07443,31.43611 -31.43611,31.43611 -17.36168,0 -31.43611,-14.07442 -31.43611,-31.43611 0,-17.36168 14.07443,-31.43611 31.43611,-31.43611 17.36168,0 31.43611,14.07443 31.43611,31.43611 z"
       sodipodi:cx="307.15802"
       sodipodi:cy="416.13162"
       sodipodi:rx="31.436108"
       sodipodi:ry="31.436108"
       transform="matrix(-1,0,0,1,840.01982,0)" />
    <ellipse
       style="fill:#000000;fill-opacity:1;fill-rule:evenodd;stroke:none"
       id="path5628"
       cx="290.72556"
       cy="416.33432"
       rx="2.4313171"
       ry="4.8626342"
       d="m 293.15687,416.33432 c 0,2.68556 -1.08854,4.86263 -2.43131,4.86263 -1.34278,0 -2.43132,-2.17707 -2.43132,-4.86263 0,-2.68556 1.08854,-4.86263 2.43132,-4.86263 1.34277,0 2.43131,2.17707 2.43131,4.86263 z"
       sodipodi:cx="290.72556"
       sodipodi:cy="416.33432"
       sodipodi:rx="2.4313171"
       sodipodi:ry="4.8626342"
       transform="matrix(-1,0,0,1,835.37696,21.785717)" />
    <path
       style="fill:#f9d209;fill-opacity:1;fill-rule:evenodd;stroke:#000000;stroke-width:1.00000012;stroke-linecap:round;stroke-linejoin:round;stroke-miterlimit:4;stroke-opacity:1;stroke-dasharray:none;stroke-dashoffset:0"
       d="m 563.78101,414.97095 0.0932,-5.52317 -0.35364,-1.52702 c -1.23071,-5.31421 -4.50552,-10.65394 -8.93746,-14.57291 -4.27297,-3.77841 -9.75966,-6.40752 -16.03281,-7.6826 -2.7096,-0.55074 -9.66448,-0.55148 -12.36991,-8.8e-4 -6.65197,1.35273 -11.81821,3.88933 -16.37433,8.0397 -3.79523,3.45725 -6.57198,7.68793 -8.01833,12.21681 -0.75904,2.37676 -1.30663,5.47264 -1.18056,6.67449 0.0871,0.83009 0.0949,0.83465 2.33224,1.37356 11.42064,1.70417 42.56904,4.26623 60.8416,1.00202 z"
       id="path3355"
       inkscape:connector-curvature="0"
       sodipodi:nodetypes="ccssscssccc" />
    <path
       sodipodi:type="arc"
       style="fill:#000000;fill-opacity:1;stroke:none"
       id="path3051"
       sodipodi:cx="80.89286"
       sodipodi:cy="197.90567"
       sodipodi:rx="12.678572"
       sodipodi:ry="8.3928576"
       d="m 68.285762,198.79558 a 12.678572,8.3928576 0 1 1 25.204686,0.0572"
       transform="matrix(-1.4225178,0,0,2.1852958,642.71952,71.906359)"
       sodipodi:start="3.0353608"
       sodipodi:end="6.3962716"
       sodipodi:open="true" />
    <path
       sodipodi:type="arc"
       style="fill:#000000;fill-opacity:1;stroke:none"
       id="path3824"
       sodipodi:cx="91.60714"
       sodipodi:cy="195.40567"
       sodipodi:rx="0.17857143"
       sodipodi:ry="3.0357144"
       d="m 91.429575,195.72755 a 0.17857143,3.0357144 0 0 1 0.298004,-2.56318 l -0.120439,2.2413 z"
       transform="matrix(-1,0,0,1,603.54107,285.46284)"
       sodipodi:start="3.0353608"
       sodipodi:end="5.4526243" />
    <path
       style="fill:#00ffff;stroke:#000000;stroke-width:1px;stroke-linecap:butt;stroke-linejoin:miter;stroke-opacity:1"
       d="m 530.68392,450.3328 c -1.16305,5.33329 -0.18859,9.30982 1.42858,14.28571 4.31183,13.26718 -19.28375,9.34614 -13.57143,1.78572 z"
       id="path3828"
       inkscape:connector-curvature="0"
       sodipodi:nodetypes="ccsc" />
    <path
       style="fill:#00ffff;stroke:#000000;stroke-width:1.00000012px;stroke-linecap:butt;stroke-linejoin:miter;stroke-opacity:1"
       d="m 541.58202,443.70565 c 5.43283,0.53007 5.52569,-4.85334 7.14286,0.12255 -4.4834,12.00692 -52.2853,-2.71111 -39.28572,-8.92857 5.19555,5.28778 10.36345,6.68106 11.11215,6.75411 z"
       id="path3828-6"
       inkscape:connector-curvature="0"
       sodipodi:nodetypes="sccss" />
  </g>
</svg>
