<?xml version="1.0" encoding="UTF-8" standalone="no"?>
<!-- Created with Inkscape (http://www.inkscape.org/) -->

<svg
   xmlns:dc="http://purl.org/dc/elements/1.1/"
   xmlns:cc="http://creativecommons.org/ns#"
   xmlns:rdf="http://www.w3.org/1999/02/22-rdf-syntax-ns#"
   xmlns:svg="http://www.w3.org/2000/svg"
   xmlns="http://www.w3.org/2000/svg"
   xmlns:sodipodi="http://sodipodi.sourceforge.net/DTD/sodipodi-0.dtd"
   xmlns:inkscape="http://www.inkscape.org/namespaces/inkscape"
   width="103.58755mm"
   height="95.818062mm"
   viewBox="0 0 367.04252 339.51282"
   id="svg2"
   version="1.1"
   inkscape:version="0.91 r13725"
   sodipodi:docname="abeille_sourire.svg"
   inkscape:export-filename="C:\Users\Rodrigue\GitHub\INFO-F308-Projet_d_informatique_3-Project-201415\video\abeille\abeille_sourire.png"
   inkscape:export-xdpi="132"
   inkscape:export-ydpi="132">
  <defs
     id="defs4" />
  <sodipodi:namedview
     id="base"
     pagecolor="#ffffff"
     bordercolor="#666666"
     borderopacity="1.0"
     inkscape:pageopacity="0.0"
     inkscape:pageshadow="2"
     inkscape:zoom="1.979899"
     inkscape:cx="67.749771"
     inkscape:cy="134.42189"
     inkscape:document-units="px"
     inkscape:current-layer="g5773"
     showgrid="false"
     fit-margin-top="0"
     fit-margin-left="0"
     fit-margin-right="0"
     fit-margin-bottom="0"
     borderlayer="true"
     inkscape:showpageshadow="false"
     inkscape:window-width="1920"
     inkscape:window-height="1058"
     inkscape:window-x="-8"
     inkscape:window-y="-8"
     inkscape:window-maximized="1" />
  <metadata
     id="metadata7">
    <rdf:RDF>
      <cc:Work
         rdf:about="">
        <dc:format>image/svg+xml</dc:format>
        <dc:type
           rdf:resource="http://purl.org/dc/dcmitype/StillImage" />
        <dc:title />
      </cc:Work>
    </rdf:RDF>
  </metadata>
  <g
     inkscape:label="Calque 1"
     inkscape:groupmode="layer"
     id="layer1"
     transform="translate(-236.47875,-285.46286)">
    <g
       id="g5773"
       transform="matrix(1.429092,0,0,1.429092,-190.91726,-3721.9386)">
      <path
         sodipodi:nodetypes="cccc"
         inkscape:connector-curvature="0"
         id="path5770"
         d="m 533.1627,2940.5369 c 4.6034,3.14 12.87268,-2.7462 22.25556,-22.857 -9.32326,38.7514 -18.64651,43.2243 -27.96976,58.3456 z"
         style="fill:#3a2213;fill-opacity:1;fill-rule:evenodd;stroke:#000000;stroke-width:1px;stroke-linecap:butt;stroke-linejoin:miter;stroke-opacity:1" />
      <path
         sodipodi:nodetypes="cccsccc"
         inkscape:connector-curvature="0"
         id="path5701-0-6-4"
         d="m 487.09263,2993.103 c 1.30688,6.5863 5.07662,11.4201 11.7106,15.0157 4.76747,0.7119 3.99849,-4.0886 9.27234,-2.606 5.5715,1.74 13.65366,5.9305 9.52159,10.0625 -5.24147,5.2414 -11.57702,5.691 -17.77214,1.702 -11.91,-4.4892 -16.53582,-14.4457 -21.27817,-23.4846 z"
         style="opacity:1;fill:#000000;fill-opacity:1;fill-rule:evenodd;stroke:none;stroke-width:1;stroke-linecap:round;stroke-linejoin:round;stroke-miterlimit:4;stroke-dasharray:none;stroke-dashoffset:0;stroke-opacity:1" />
      <path
         sodipodi:nodetypes="cccsccc"
         inkscape:connector-curvature="0"
         id="path5701-0-2"
         d="m 468.8805,3003.0875 c 1.30688,6.5862 5.07663,11.4201 11.71061,15.0156 4.76746,0.712 3.99848,-4.0886 9.27233,-2.6059 5.57151,1.74 13.65366,5.9304 9.52159,10.0624 -5.24147,5.2415 -11.57702,5.6911 -17.77214,1.702 -11.90999,-4.4892 -16.53581,-14.4456 -21.27817,-23.4846 z"
         style="opacity:1;fill:#000000;fill-opacity:1;fill-rule:evenodd;stroke:none;stroke-width:1;stroke-linecap:round;stroke-linejoin:round;stroke-miterlimit:4;stroke-dasharray:none;stroke-dashoffset:0;stroke-opacity:1" />
      <path
         sodipodi:nodetypes="cccsccc"
         inkscape:connector-curvature="0"
         id="path5701-0-6"
         d="m 437.64501,3012.4488 c 1.30689,6.5863 5.07663,11.4201 11.71061,15.0157 4.76746,0.7119 3.99848,-4.0886 9.27234,-2.606 5.5715,1.74 13.65366,5.9305 9.52159,10.0624 -5.24148,5.2415 -11.57702,5.6911 -17.77214,1.7021 -11.91,-4.4892 -16.53582,-14.4457 -21.27818,-23.4846 z"
         style="opacity:1;fill:#000000;fill-opacity:1;fill-rule:evenodd;stroke:none;stroke-width:1;stroke-linecap:round;stroke-linejoin:round;stroke-miterlimit:4;stroke-dasharray:none;stroke-dashoffset:0;stroke-opacity:1" />
      <path
         sodipodi:nodetypes="cccsccc"
         inkscape:connector-curvature="0"
         id="path5701-0"
         d="m 411.00302,3014.8999 c 1.30692,6.5863 5.07669,11.4201 11.71062,15.0157 4.7675,0.7119 3.99849,-4.0886 9.27238,-2.606 5.57151,1.74 13.65365,5.9305 9.52158,10.0624 -5.24148,5.2415 -11.57707,5.6911 -17.77213,1.7021 -11.91,-4.4892 -16.53584,-14.4457 -21.27823,-23.4846 z"
         style="opacity:1;fill:#000000;fill-opacity:1;fill-rule:evenodd;stroke:none;stroke-width:1;stroke-linecap:round;stroke-linejoin:round;stroke-miterlimit:4;stroke-dasharray:none;stroke-dashoffset:0;stroke-opacity:1" />
      <path
         sodipodi:nodetypes="ccccccsccccccccssccccc"
         inkscape:connector-curvature="0"
         id="path5701"
         d="m 369.90322,2860.6584 c -2.48173,-3.9619 -7.62132,-11.6538 -9.25592,-13.8524 -4.20151,-5.6514 -7.71102,-8.9682 -10.76079,-10.1701 -1.40882,-0.5551 -4.30992,-0.5622 -5.67757,-0.014 -0.88376,0.3543 -2.49047,1.2747 -3.38772,1.9405 -1.36569,1.9554 0.75282,5.2694 -3.84522,6.0111 -3.41018,0 -5.59201,-4.6376 -3.38279,-7.2185 1.09651,-1.281 3.70779,-1.245 5.24612,-0.6022 0.63404,0.2649 1.43518,-0.1605 2.12626,-0.6783 6.00815,-4.5025 11.52945,-3.0291 18.14419,4.8416 2.52777,3.0078 6.69174,8.953 11.02582,15.7422 0.0744,0 -0.91928,-4.3215 -1.25081,-6.0444 -2.6879,-13.1468 -6.20064,-21.5673 -11.13281,-24.8662 -2.62961,-1.7588 -5.4959,-2.1133 -8.90391,-1.1011 -1.82539,1.3512 0.0295,2.6942 -2.2209,3.9573 -2.4358,1.2765 -5.72894,-0.7198 -5.72894,-3.473 0,-3.4924 1.95077,-3.3861 5.41707,-3.195 l 2.84781,0.157 c 2.32422,-0.7178 4.97118,-0.7784 6.91243,-0.158 6.8174,2.1786 11.66666,11.3283 14.98895,28.2816 0.78577,4.0099 1.95746,10.907 1.86799,10.9965 -1.24151,1.697 -2.07198,1.0726 -3.02926,-0.555 z"
         style="opacity:1;fill:#000000;fill-opacity:1;fill-rule:evenodd;stroke:none;stroke-width:1;stroke-linecap:round;stroke-linejoin:round;stroke-miterlimit:4;stroke-dasharray:none;stroke-dashoffset:0;stroke-opacity:1" />
      <ellipse
         ry="83"
         rx="117.29272"
         cy="2941.1384"
         cx="421.59216"
         id="path16200-8"
         style="opacity:1;fill:#3a2213;fill-opacity:1;fill-rule:evenodd;stroke:#000000;stroke-width:1;stroke-linecap:round;stroke-linejoin:round;stroke-miterlimit:4;stroke-dasharray:none;stroke-dashoffset:0;stroke-opacity:1" />
      <path
         inkscape:connector-curvature="0"
         id="path16200-6-1"
         d="m 422.92199,2858.1385 c 1.8405,4.1319 3.73239,8.4945 5.01759,11.7299 16.29033,41.0094 17.35203,85.9994 3.22268,136.5491 -0.77999,2.7904 -3.23288,11.0439 -5.24218,17.721 a 117.29227,83.100068 0 0 0 34.53307,-4.6282 c 0.2413,-0.8556 0.5578,-1.9075 0.998,-3.324 3.71888,-11.9657 7.32117,-24.9572 9.01366,-32.4992 7.47957,-33.3319 7.28347,-61.0375 -0.627,-88.3508 -2.13609,-7.3763 -4.63758,-13.8857 -9.79876,-25.4953 -1.45579,-3.2747 -2.66379,-6.0801 -3.43158,-7.9366 a 117.29227,83.100068 0 0 0 -33.68548,-3.7659 z m -36.11116,3.7052 a 117.29227,83.100068 0 0 0 -82.51138,79.3584 117.29227,83.100068 0 0 0 86.41367,80.1521 c 0.5282,-1.9779 1.57209,-5.5841 2.85749,-9.8099 6.63277,-21.8063 9.50686,-34.5433 11.75775,-52.1247 1.0849,-8.4732 1.0875,-32.1205 0,-39.814 -2.49379,-17.7151 -6.02897,-29.4731 -14.76164,-49.1037 -1.65409,-3.7183 -3.05659,-6.9604 -3.75589,-8.6582 z m 114.62456,18.6264 c 5.88318,17.7011 8.50047,33.9263 8.95117,53.4015 0.5055,21.8483 -2.18529,43.0226 -8.72847,67.9705 a 117.29227,83.100068 0 0 0 37.22636,-60.64 117.29227,83.100068 0 0 0 -37.44906,-60.732 z"
         style="opacity:1;fill:#f9d209;fill-opacity:1;fill-rule:evenodd;stroke:#000000;stroke-width:1;stroke-linecap:round;stroke-linejoin:round;stroke-miterlimit:4;stroke-dasharray:none;stroke-dashoffset:0;stroke-opacity:1" />
      <circle
         r="21.997259"
         cy="2895.594"
         cx="321.64014"
         id="path5611"
         style="opacity:1;fill:#ffffff;fill-opacity:1;fill-rule:evenodd;stroke:#000000;stroke-width:1.1493032;stroke-linecap:square;stroke-linejoin:round;stroke-miterlimit:4;stroke-dasharray:none;stroke-dashoffset:0;stroke-opacity:1" />
      <circle
         r="21.997259"
         cy="2895.594"
         cx="348.5257"
         id="path5611-8"
         style="opacity:1;fill:#ffffff;fill-opacity:1;fill-rule:evenodd;stroke:#000000;stroke-width:1.1493032;stroke-linecap:square;stroke-linejoin:round;stroke-miterlimit:4;stroke-dasharray:none;stroke-dashoffset:0;stroke-opacity:1" />
      <ellipse
         ry="3.4026041"
         rx="1.7013021"
         cy="2895.7358"
         cx="337.02716"
         id="path5628"
         style="opacity:1;fill:#000000;fill-opacity:1;fill-rule:evenodd;stroke:none;stroke-width:1;stroke-linecap:square;stroke-linejoin:round;stroke-miterlimit:4;stroke-dasharray:none;stroke-dashoffset:0;stroke-opacity:1" />
      <ellipse
         ry="3.4026041"
         rx="1.7013021"
         cy="2895.7358"
         cx="318.1543"
         id="path5628-7"
         style="opacity:1;fill:#000000;fill-opacity:1;fill-rule:evenodd;stroke:none;stroke-width:1;stroke-linecap:square;stroke-linejoin:round;stroke-miterlimit:4;stroke-dasharray:none;stroke-dashoffset:0;stroke-opacity:1" />
      <path
         sodipodi:nodetypes="cssc"
         inkscape:connector-curvature="0"
         id="path5660"
         d="m 440.59395,2852.3387 c -4.34143,-2.1877 25.82756,-58.8865 36.7033,-44.8265 l 13.69151,17.7 c 13.60452,17.5877 -49.57954,31.7098 -50.39481,27.1265 z"
         style="fill:#ffffff;fill-opacity:1;fill-rule:evenodd;stroke:#000000;stroke-width:1px;stroke-linecap:round;stroke-linejoin:round;stroke-opacity:1" />
      <path
         sodipodi:nodetypes="cc"
         inkscape:connector-curvature="0"
         id="path5662"
         d="m 441.16595,2851.8097 34.77056,-25.789"
         style="fill:none;fill-rule:evenodd;stroke:#000000;stroke-width:1px;stroke-linecap:round;stroke-linejoin:round;stroke-opacity:1" />
      <path
         sodipodi:nodetypes="cssc"
         inkscape:connector-curvature="0"
         id="path5660-6"
         d="m 436.977,2851.7218 c 4.3414,-2.1877 -25.8276,-58.8865 -36.7033,-44.8265 l -13.6915,17.7 c -13.6046,17.5877 49.5795,31.7098 50.3948,27.1265 z"
         style="fill:#ffffff;fill-opacity:1;fill-rule:evenodd;stroke:#000000;stroke-width:1px;stroke-linecap:round;stroke-linejoin:round;stroke-opacity:1" />
      <path
         sodipodi:nodetypes="cc"
         inkscape:connector-curvature="0"
         id="path5662-7"
         d="m 436.405,2851.1928 -34.7706,-25.789"
         style="fill:none;fill-rule:evenodd;stroke:#000000;stroke-width:1px;stroke-linecap:round;stroke-linejoin:round;stroke-opacity:1" />
      <path
         sodipodi:nodetypes="casccc"
         inkscape:connector-curvature="0"
         id="path5703"
         d="m 309.55171,2868.442 c 1.00678,-1.9591 3.97128,-6.7944 7.16404,-6.4441 2.27202,0.2495 3.46174,3.7349 3.98224,5.5821 0.61988,2.2 -1.46456,0.8961 -3.89247,2.4226 -3.65163,2.296 -8.70168,4.317 -9.33194,4.3406 -1.62794,-2.5753 0.97504,-3.9381 2.07813,-5.9012 z"
         style="opacity:1;fill:#000000;fill-opacity:1;fill-rule:evenodd;stroke:none;stroke-width:1;stroke-linecap:round;stroke-linejoin:round;stroke-miterlimit:4;stroke-dasharray:none;stroke-dashoffset:0;stroke-opacity:1" />
      <path
         sodipodi:nodetypes="casccc"
         inkscape:connector-curvature="0"
         id="path5703-0"
         d="m 349.61595,2865.4539 c -1.62459,-1.4875 -6.08398,-4.992 -8.95632,-3.5544 -2.04389,1.0229 -1.94894,4.7047 -1.79536,6.6177 0.18284,2.2783 1.68466,0.3315 4.4916,0.9197 4.22177,0.8847 9.65934,1.0257 10.25854,0.8288 0.63207,-2.9804 -2.28216,-3.354 -3.99846,-4.8118 z"
         style="opacity:1;fill:#000000;fill-opacity:1;fill-rule:evenodd;stroke:none;stroke-width:1;stroke-linecap:round;stroke-linejoin:round;stroke-miterlimit:4;stroke-dasharray:none;stroke-dashoffset:0;stroke-opacity:1" />
      <path
         style="fill:none;fill-rule:evenodd;stroke:#000000;stroke-width:1.39949015;stroke-linecap:butt;stroke-linejoin:miter;stroke-opacity:1;stroke-miterlimit:4;stroke-dasharray:none"
         d="m 314.81249,2944.2672 c 23.40561,37.4839 42.73443,0 42.73443,0"
         id="path3380"
         inkscape:connector-curvature="0"
         sodipodi:nodetypes="cc" />
    </g>
  </g>
</svg>
