<?xml version="1.0" encoding="UTF-8" standalone="no"?>
<!-- Created with Inkscape (http://www.inkscape.org/) -->

<svg
   xmlns:dc="http://purl.org/dc/elements/1.1/"
   xmlns:cc="http://creativecommons.org/ns#"
   xmlns:rdf="http://www.w3.org/1999/02/22-rdf-syntax-ns#"
   xmlns:svg="http://www.w3.org/2000/svg"
   xmlns="http://www.w3.org/2000/svg"
   xmlns:sodipodi="http://sodipodi.sourceforge.net/DTD/sodipodi-0.dtd"
   xmlns:inkscape="http://www.inkscape.org/namespaces/inkscape"
   width="360.92807mm"
   height="208.27695mm"
   viewBox="0 0 1278.8791 737.98919"
   id="svg2"
   version="1.1"
   inkscape:version="0.91 r13725"
   sodipodi:docname="abeille_fin.svg"
   inkscape:export-filename="abeille_fin.png"
   inkscape:export-xdpi="121.95837"
   inkscape:export-ydpi="121.95837">
  <defs
     id="defs4">
    <filter
       style="color-interpolation-filters:sRGB"
       inkscape:label="Roughen"
       id="filter4451">
      <feTurbulence
         type="fractalNoise"
         numOctaves="1"
         seed="125"
         baseFrequency="0.01 0.001"
         result="turbulence"
         id="feTurbulence4453" />
      <feDisplacementMap
         in="SourceGraphic"
         in2="turbulence"
         scale="32.6"
         yChannelSelector="G"
         xChannelSelector="R"
         id="feDisplacementMap4455"
         result="fbSourceGraphic" />
      <feColorMatrix
         result="fbSourceGraphicAlpha"
         in="fbSourceGraphic"
         values="0 0 0 -1 0 0 0 0 -1 0 0 0 0 -1 0 0 0 0 1 0"
         id="feColorMatrix4457" />
      <feTurbulence
         id="feTurbulence4459"
         type="fractalNoise"
         numOctaves="1"
         seed="125"
         baseFrequency="0.01 0.001"
         result="turbulence" />
      <feDisplacementMap
         id="feDisplacementMap4461"
         in2="turbulence"
         in="fbSourceGraphic"
         scale="32.6"
         yChannelSelector="G"
         xChannelSelector="R" />
    </filter>
  </defs>
  <sodipodi:namedview
     id="base"
     pagecolor="#ffffff"
     bordercolor="#666666"
     borderopacity="1.0"
     inkscape:pageopacity="0.0"
     inkscape:pageshadow="2"
     inkscape:zoom="0.7"
     inkscape:cx="361.20321"
     inkscape:cy="397.45971"
     inkscape:document-units="px"
     inkscape:current-layer="g5773"
     showgrid="false"
     fit-margin-top="0"
     fit-margin-left="0"
     fit-margin-right="0"
     fit-margin-bottom="0"
     borderlayer="true"
     inkscape:showpageshadow="false"
     inkscape:window-width="1846"
     inkscape:window-height="1058"
     inkscape:window-x="1912"
     inkscape:window-y="-8"
     inkscape:window-maximized="1" />
  <metadata
     id="metadata7">
    <rdf:RDF>
      <cc:Work
         rdf:about="">
        <dc:format>image/svg+xml</dc:format>
        <dc:type
           rdf:resource="http://purl.org/dc/dcmitype/StillImage" />
        <dc:title></dc:title>
      </cc:Work>
    </rdf:RDF>
  </metadata>
  <g
     inkscape:label="Calque 1"
     inkscape:groupmode="layer"
     id="layer1"
     transform="translate(-236.47875,113.6375)">
    <g
       id="g5773"
       transform="matrix(1.429092,0,0,1.429092,-190.91726,-3721.9386)">
      <rect
         style="opacity:1;fill:#782121;fill-opacity:1;fill-rule:evenodd;stroke:#000000;stroke-width:0.69974506;stroke-linecap:round;stroke-linejoin:round;stroke-miterlimit:4;stroke-dasharray:none;stroke-dashoffset:0;stroke-opacity:1"
         id="rect4157"
         width="14.136985"
         height="506.81094"
         x="1171.35"
         y="2317.6675"
         transform="matrix(0.96192572,0.27331101,-0.27331098,0.96192573,0,0)" />
      <path
         sodipodi:nodetypes="cccc"
         inkscape:connector-curvature="0"
         id="path5770"
         d="m 533.1627,2940.5369 c 4.6034,3.14 12.87268,-2.7462 22.25556,-22.857 -9.32326,38.7514 -18.64651,43.2243 -27.96976,58.3456 z"
         style="fill:#3a2213;fill-opacity:1;fill-rule:evenodd;stroke:#000000;stroke-width:1px;stroke-linecap:butt;stroke-linejoin:miter;stroke-opacity:1" />
      <path
         sodipodi:nodetypes="cccsccc"
         inkscape:connector-curvature="0"
         id="path5701-0-6-4"
         d="m 487.09263,2993.103 c 1.30688,6.5863 5.07662,11.4201 11.7106,15.0157 4.76747,0.7119 3.99849,-4.0886 9.27234,-2.606 5.5715,1.74 13.65366,5.9305 9.52159,10.0625 -5.24147,5.2414 -11.57702,5.691 -17.77214,1.702 -11.91,-4.4892 -16.53582,-14.4457 -21.27817,-23.4846 z"
         style="opacity:1;fill:#000000;fill-opacity:1;fill-rule:evenodd;stroke:none;stroke-width:1;stroke-linecap:round;stroke-linejoin:round;stroke-miterlimit:4;stroke-dasharray:none;stroke-dashoffset:0;stroke-opacity:1" />
      <path
         sodipodi:nodetypes="cccsccc"
         inkscape:connector-curvature="0"
         id="path5701-0-2"
         d="m 468.8805,3003.0875 c 1.30688,6.5862 5.07663,11.4201 11.71061,15.0156 4.76746,0.712 3.99848,-4.0886 9.27233,-2.6059 5.57151,1.74 13.65366,5.9304 9.52159,10.0624 -5.24147,5.2415 -11.57702,5.6911 -17.77214,1.702 -11.90999,-4.4892 -16.53581,-14.4456 -21.27817,-23.4846 z"
         style="opacity:1;fill:#000000;fill-opacity:1;fill-rule:evenodd;stroke:none;stroke-width:1;stroke-linecap:round;stroke-linejoin:round;stroke-miterlimit:4;stroke-dasharray:none;stroke-dashoffset:0;stroke-opacity:1" />
      <path
         sodipodi:nodetypes="cccsccc"
         inkscape:connector-curvature="0"
         id="path5701-0-6"
         d="m 408.65557,3013.4484 c 1.30689,6.5863 5.07663,11.4201 11.71061,15.0157 4.76746,0.7119 3.99848,-4.0886 9.27234,-2.606 5.5715,1.74 13.65366,5.9305 9.52159,10.0624 -5.24148,5.2415 -11.57702,5.6911 -17.77214,1.7021 -11.91,-4.4892 -16.53582,-14.4457 -21.27818,-23.4846 z"
         style="opacity:1;fill:#000000;fill-opacity:1;fill-rule:evenodd;stroke:none;stroke-width:1;stroke-linecap:round;stroke-linejoin:round;stroke-miterlimit:4;stroke-dasharray:none;stroke-dashoffset:0;stroke-opacity:1" />
      <path
         sodipodi:nodetypes="cccsccc"
         inkscape:connector-curvature="0"
         id="path5701-0"
         d="m 362.02086,3008.9021 c 1.30692,6.5863 5.07669,11.4201 11.71062,15.0157 4.7675,0.7119 3.99849,-4.0886 9.27238,-2.606 5.57151,1.74 13.65365,5.9305 9.52158,10.0624 -5.24148,5.2415 -11.57707,5.6911 -17.77213,1.7021 -11.91,-4.4892 -16.53584,-14.4457 -21.27823,-23.4846 z"
         style="opacity:1;fill:#000000;fill-opacity:1;fill-rule:evenodd;stroke:none;stroke-width:1;stroke-linecap:round;stroke-linejoin:round;stroke-miterlimit:4;stroke-dasharray:none;stroke-dashoffset:0;stroke-opacity:1" />
      <path
         sodipodi:nodetypes="ccccccsccccccccssccccc"
         inkscape:connector-curvature="0"
         id="path5701"
         d="m 369.90322,2860.6584 c -2.48173,-3.9619 -7.62132,-11.6538 -9.25592,-13.8524 -4.20151,-5.6514 -7.71102,-8.9682 -10.76079,-10.1701 -1.40882,-0.5551 -4.30992,-0.5622 -5.67757,-0.014 -0.88376,0.3543 -2.49047,1.2747 -3.38772,1.9405 -1.36569,1.9554 0.75282,5.2694 -3.84522,6.0111 -3.41018,0 -5.59201,-4.6376 -3.38279,-7.2185 1.09651,-1.281 3.70779,-1.245 5.24612,-0.6022 0.63404,0.2649 1.43518,-0.1605 2.12626,-0.6783 6.00815,-4.5025 11.52945,-3.0291 18.14419,4.8416 2.52777,3.0078 6.69174,8.953 11.02582,15.7422 0.0744,0 -0.91928,-4.3215 -1.25081,-6.0444 -2.6879,-13.1468 -6.20064,-21.5673 -11.13281,-24.8662 -2.62961,-1.7588 -5.4959,-2.1133 -8.90391,-1.1011 -1.82539,1.3512 0.0295,2.6942 -2.2209,3.9573 -2.4358,1.2765 -5.72894,-0.7198 -5.72894,-3.473 0,-3.4924 1.95077,-3.3861 5.41707,-3.195 l 2.84781,0.157 c 2.32422,-0.7178 4.97118,-0.7784 6.91243,-0.158 6.8174,2.1786 11.66666,11.3283 14.98895,28.2816 0.78577,4.0099 1.95746,10.907 1.86799,10.9965 -1.24151,1.697 -2.07198,1.0726 -3.02926,-0.555 z"
         style="opacity:1;fill:#000000;fill-opacity:1;fill-rule:evenodd;stroke:none;stroke-width:1;stroke-linecap:round;stroke-linejoin:round;stroke-miterlimit:4;stroke-dasharray:none;stroke-dashoffset:0;stroke-opacity:1" />
      <ellipse
         ry="83"
         rx="117.29272"
         cy="2941.1384"
         cx="421.59216"
         id="path16200-8"
         style="opacity:1;fill:#3a2213;fill-opacity:1;fill-rule:evenodd;stroke:#000000;stroke-width:1;stroke-linecap:round;stroke-linejoin:round;stroke-miterlimit:4;stroke-dasharray:none;stroke-dashoffset:0;stroke-opacity:1" />
      <path
         inkscape:connector-curvature="0"
         id="path16200-6-1"
         d="m 422.92199,2858.1385 c 1.8405,4.1319 3.73239,8.4945 5.01759,11.7299 16.29033,41.0094 17.35203,85.9994 3.22268,136.5491 -0.77999,2.7904 -3.23288,11.0439 -5.24218,17.721 a 117.29227,83.100068 0 0 0 34.53307,-4.6282 c 0.2413,-0.8556 0.5578,-1.9075 0.998,-3.324 3.71888,-11.9657 7.32117,-24.9572 9.01366,-32.4992 7.47957,-33.3319 7.28347,-61.0375 -0.627,-88.3508 -2.13609,-7.3763 -4.63758,-13.8857 -9.79876,-25.4953 -1.45579,-3.2747 -2.66379,-6.0801 -3.43158,-7.9366 a 117.29227,83.100068 0 0 0 -33.68548,-3.7659 z m -36.11116,3.7052 a 117.29227,83.100068 0 0 0 -82.51138,79.3584 117.29227,83.100068 0 0 0 86.41367,80.1521 c 0.5282,-1.9779 1.57209,-5.5841 2.85749,-9.8099 6.63277,-21.8063 9.50686,-34.5433 11.75775,-52.1247 1.0849,-8.4732 1.0875,-32.1205 0,-39.814 -2.49379,-17.7151 -6.02897,-29.4731 -14.76164,-49.1037 -1.65409,-3.7183 -3.05659,-6.9604 -3.75589,-8.6582 z m 114.62456,18.6264 c 5.88318,17.7011 8.50047,33.9263 8.95117,53.4015 0.5055,21.8483 -2.18529,43.0226 -8.72847,67.9705 a 117.29227,83.100068 0 0 0 37.22636,-60.64 117.29227,83.100068 0 0 0 -37.44906,-60.732 z"
         style="opacity:1;fill:#f9d209;fill-opacity:1;fill-rule:evenodd;stroke:#000000;stroke-width:1;stroke-linecap:round;stroke-linejoin:round;stroke-miterlimit:4;stroke-dasharray:none;stroke-dashoffset:0;stroke-opacity:1" />
      <circle
         r="21.997259"
         cy="2895.594"
         cx="321.64014"
         id="path5611"
         style="opacity:1;fill:#ffffff;fill-opacity:1;fill-rule:evenodd;stroke:#000000;stroke-width:1.1493032;stroke-linecap:square;stroke-linejoin:round;stroke-miterlimit:4;stroke-dasharray:none;stroke-dashoffset:0;stroke-opacity:1" />
      <circle
         r="21.997259"
         cy="2895.594"
         cx="348.5257"
         id="path5611-8"
         style="opacity:1;fill:#ffffff;fill-opacity:1;fill-rule:evenodd;stroke:#000000;stroke-width:1.1493032;stroke-linecap:square;stroke-linejoin:round;stroke-miterlimit:4;stroke-dasharray:none;stroke-dashoffset:0;stroke-opacity:1" />
      <ellipse
         ry="3.4026041"
         rx="1.7013021"
         cy="2895.7358"
         cx="337.02716"
         id="path5628"
         style="opacity:1;fill:#000000;fill-opacity:1;fill-rule:evenodd;stroke:none;stroke-width:1;stroke-linecap:square;stroke-linejoin:round;stroke-miterlimit:4;stroke-dasharray:none;stroke-dashoffset:0;stroke-opacity:1" />
      <ellipse
         ry="3.4026041"
         rx="1.7013021"
         cy="2895.7358"
         cx="318.1543"
         id="path5628-7"
         style="opacity:1;fill:#000000;fill-opacity:1;fill-rule:evenodd;stroke:none;stroke-width:1;stroke-linecap:square;stroke-linejoin:round;stroke-miterlimit:4;stroke-dasharray:none;stroke-dashoffset:0;stroke-opacity:1" />
      <path
         sodipodi:nodetypes="cssc"
         inkscape:connector-curvature="0"
         id="path5660"
         d="m 440.59395,2852.3387 c -4.34143,-2.1877 25.82756,-58.8865 36.7033,-44.8265 l 13.69151,17.7 c 13.60452,17.5877 -49.57954,31.7098 -50.39481,27.1265 z"
         style="fill:#ffffff;fill-opacity:1;fill-rule:evenodd;stroke:#000000;stroke-width:1px;stroke-linecap:round;stroke-linejoin:round;stroke-opacity:1" />
      <path
         sodipodi:nodetypes="cc"
         inkscape:connector-curvature="0"
         id="path5662"
         d="m 441.16595,2851.8097 34.77056,-25.789"
         style="fill:none;fill-rule:evenodd;stroke:#000000;stroke-width:1px;stroke-linecap:round;stroke-linejoin:round;stroke-opacity:1" />
      <path
         sodipodi:nodetypes="cssc"
         inkscape:connector-curvature="0"
         id="path5660-6"
         d="m 436.977,2851.7218 c 4.3414,-2.1877 -25.8276,-58.8865 -36.7033,-44.8265 l -13.6915,17.7 c -13.6046,17.5877 49.5795,31.7098 50.3948,27.1265 z"
         style="fill:#ffffff;fill-opacity:1;fill-rule:evenodd;stroke:#000000;stroke-width:1px;stroke-linecap:round;stroke-linejoin:round;stroke-opacity:1" />
      <path
         sodipodi:nodetypes="cc"
         inkscape:connector-curvature="0"
         id="path5662-7"
         d="m 436.405,2851.1928 -34.7706,-25.789"
         style="fill:none;fill-rule:evenodd;stroke:#000000;stroke-width:1px;stroke-linecap:round;stroke-linejoin:round;stroke-opacity:1" />
      <path
         sodipodi:nodetypes="casccc"
         inkscape:connector-curvature="0"
         id="path5703"
         d="m 312.88159,2864.3648 c 1.07921,-1.9201 4.22209,-6.6414 7.39957,-6.1721 2.2611,0.334 3.31993,3.8614 3.77111,5.7267 0.53734,2.2216 -1.49697,0.8409 -3.98017,2.2757 -3.73476,2.1581 -8.85673,3.9892 -9.48744,3.9892 -1.53067,-2.6342 1.12136,-3.8989 2.29693,-5.8195 z"
         style="opacity:1;fill:#000000;fill-opacity:1;fill-rule:evenodd;stroke:none;stroke-width:1;stroke-linecap:round;stroke-linejoin:round;stroke-miterlimit:4;stroke-dasharray:none;stroke-dashoffset:0;stroke-opacity:1" />
      <path
         sodipodi:nodetypes="casccc"
         inkscape:connector-curvature="0"
         id="path5703-0"
         d="m 347.13547,2862.4768 c -1.07918,-1.9202 -4.22207,-6.6414 -7.39956,-6.1722 -2.26109,0.334 -3.31994,3.8614 -3.77111,5.7268 -0.53737,2.2216 1.497,0.8408 3.9802,2.2756 3.73475,2.1582 8.8567,3.9892 9.48741,3.9892 1.53066,-2.6342 -1.12133,-3.8988 -2.29694,-5.8194 z"
         style="opacity:1;fill:#000000;fill-opacity:1;fill-rule:evenodd;stroke:none;stroke-width:1;stroke-linecap:round;stroke-linejoin:round;stroke-miterlimit:4;stroke-dasharray:none;stroke-dashoffset:0;stroke-opacity:1" />
      <path
         sodipodi:type="arc"
         style="fill:#000000;stroke:none"
         id="path3002"
         sodipodi:cx="78.571426"
         sodipodi:cy="197.28067"
         sodipodi:rx="8.0357141"
         sodipodi:ry="11.517858"
         d="m 86.607141,197.28067 a 8.0357141,11.517858 0 0 1 -4.017858,9.97476 8.0357141,11.517858 0 0 1 -8.035714,0 8.0357141,11.517858 0 0 1 -4.017857,-9.97476 l 8.035714,0 z"
         transform="matrix(2.3926234,0,0,2.5412849,154.80127,2436.218)"
         sodipodi:start="0"
         sodipodi:end="3.1415927" />
      <ellipse
         style="fill:#ff0000;fill-opacity:1;stroke:#000000;stroke-opacity:1"
         id="path3004"
         transform="matrix(1.0144283,0.60233296,-0.71527444,0.91684278,436.97795,2724.183)"
         cx="59.472733"
         cy="216.65302"
         rx="5.9346461"
         ry="6.4397225" />
      <path
         sodipodi:type="arc"
         style="fill:#ff0000;fill-opacity:1;stroke:#000000;stroke-width:0.99998462;stroke-linecap:square;stroke-miterlimit:4;stroke-dasharray:none;stroke-opacity:1"
         id="path3004-1"
         sodipodi:cx="59.472733"
         sodipodi:cy="216.65302"
         sodipodi:rx="5.9346461"
         sodipodi:ry="6.4397225"
         d="m 56.092402,211.36003 a 5.9346461,6.4397225 0 0 1 6.876937,0.0897 5.9346461,6.4397225 0 0 1 2.181133,7.07751 5.9346461,6.4397225 0 0 1 -5.443848,4.56049 5.9346461,6.4397225 0 0 1 -5.757955,-4.08107"
         transform="matrix(0.6046973,-0.95581352,0.92651566,0.42611408,109.9866,2922.9592)"
         sodipodi:start="4.1063788"
         sodipodi:end="2.7674353"
         sodipodi:open="true" />
      <rect
         style="fill:#ffffff;fill-opacity:1;stroke:#000000;stroke-width:1.0279088;stroke-linecap:square;stroke-miterlimit:4;stroke-dasharray:none;stroke-opacity:1"
         id="rect3792"
         width="6.0391169"
         height="8.0383883"
         x="331.22336"
         y="2938.2485" />
      <rect
         style="fill:#ffffff;fill-opacity:1;stroke:#000000;stroke-width:1.0279088;stroke-linecap:square;stroke-miterlimit:4;stroke-dasharray:none;stroke-opacity:1"
         id="rect3792-7"
         width="6.0391164"
         height="8.0383883"
         x="340.78238"
         y="2938.2488" />
      <g
         id="g4277"
         transform="matrix(0.96533966,0.26099683,-0.26099683,0.96533966,673.00739,-67.79994)"
         style="filter:url(#filter4451)">
        <rect
           y="2577.9006"
           x="519.98773"
           height="151.94464"
           width="647.76398"
           id="rect4159"
           style="opacity:1;fill:#ffffff;fill-opacity:1;fill-rule:evenodd;stroke:#000000;stroke-width:0.69974506;stroke-linecap:round;stroke-linejoin:round;stroke-miterlimit:4;stroke-dasharray:none;stroke-dashoffset:0;stroke-opacity:1" />
        <text
           sodipodi:linespacing="125%"
           id="text4271"
           y="2649.2583"
           x="851.18292"
           style="font-style:normal;font-variant:normal;font-weight:normal;font-stretch:normal;font-size:35.78741455px;line-height:125%;font-family:Verdana;-inkscape-font-specification:Verdana;text-align:center;letter-spacing:0px;word-spacing:0px;text-anchor:middle;fill:#000000;fill-opacity:1;stroke:none;stroke-width:1px;stroke-linecap:butt;stroke-linejoin:miter;stroke-opacity:1"
           xml:space="preserve"><tspan
             y="2649.2583"
             x="851.18292"
             id="tspan4273"
             sodipodi:role="line">Merci d'avoir regardé cette vidéo !</tspan><tspan
             id="tspan4275"
             y="2693.9927"
             x="851.18292"
             sodipodi:role="line">À bientot !</tspan></text>
      </g>
    </g>
  </g>
</svg>
