<?xml version="1.0" encoding="UTF-8" standalone="no"?>
<!-- Created with Inkscape (http://www.inkscape.org/) -->

<svg
   xmlns:dc="http://purl.org/dc/elements/1.1/"
   xmlns:cc="http://creativecommons.org/ns#"
   xmlns:rdf="http://www.w3.org/1999/02/22-rdf-syntax-ns#"
   xmlns:svg="http://www.w3.org/2000/svg"
   xmlns="http://www.w3.org/2000/svg"
   xmlns:xlink="http://www.w3.org/1999/xlink"
   xmlns:sodipodi="http://sodipodi.sourceforge.net/DTD/sodipodi-0.dtd"
   xmlns:inkscape="http://www.inkscape.org/namespaces/inkscape"
   width="88.582275mm"
   height="82.336914mm"
   viewBox="0 0 313.8742 291.74497"
   id="svg2"
   version="1.1"
   inkscape:version="0.91 r13725"
   sodipodi:docname="tree.svg">
  <defs
     id="defs4">
    <linearGradient
       inkscape:collect="always"
       id="linearGradient4615">
      <stop
         id="stop4595"
         offset="0"
         style="stop-color:#006000;stop-opacity:1" />
      <stop
         id="stop4593"
         offset="1"
         style="stop-color:#00c559;stop-opacity:1" />
    </linearGradient>
    <radialGradient
       inkscape:collect="always"
       xlink:href="#linearGradient4615"
       id="radialGradient4597"
       cx="327.95108"
       cy="526.6391"
       fx="327.95108"
       fy="526.6391"
       r="156.9371"
       gradientTransform="matrix(1,0,0,0.9294965,0,37.1299)"
       gradientUnits="userSpaceOnUse" />
  </defs>
  <sodipodi:namedview
     id="base"
     pagecolor="#ffffff"
     bordercolor="#666666"
     borderopacity="1.0"
     inkscape:pageopacity="0.0"
     inkscape:pageshadow="2"
     inkscape:zoom="0.24748737"
     inkscape:cx="-657.23671"
     inkscape:cy="-125.41022"
     inkscape:document-units="px"
     inkscape:current-layer="layer1"
     showgrid="false"
     fit-margin-top="0"
     fit-margin-left="0"
     fit-margin-right="0"
     fit-margin-bottom="0"
     inkscape:window-width="1846"
     inkscape:window-height="1058"
     inkscape:window-x="1912"
     inkscape:window-y="-8"
     inkscape:window-maximized="1" />
  <metadata
     id="metadata7">
    <rdf:RDF>
      <cc:Work
         rdf:about="">
        <dc:format>image/svg+xml</dc:format>
        <dc:type
           rdf:resource="http://purl.org/dc/dcmitype/StillImage" />
        <dc:title></dc:title>
      </cc:Work>
    </rdf:RDF>
  </metadata>
  <g
     inkscape:label="Calque 1"
     inkscape:groupmode="layer"
     id="layer1"
     transform="translate(-171.01397,-380.7666)">
    <path
       style="opacity:1;fill:url(#radialGradient4597);fill-opacity:1;fill-rule:evenodd;stroke:#008700;stroke-width:10;stroke-linecap:round;stroke-linejoin:round;stroke-miterlimit:4;stroke-dasharray:none;stroke-opacity:1"
       d="m 212.13203,487.68693 c -23.5646,-73.63146 55.14626,-75.04505 65.65992,-67.68022 39.6387,-50.86386 79.4001,-40.43249 111.11678,1.01015 55.02687,-1.28433 85.79712,22.42248 70.71068,92.93404 52.07717,71.42754 -8.16158,104.91744 -38.3858,106.06602 -25.50197,81.31865 -80.82873,36.19099 -108.08632,24.24365 -67.79868,29.7263 -103.91189,1.46108 -98.99495,-53.53807 -22.86235,-7.14555 -71.97144,-57.02626 -2.02031,-103.03557 z"
       id="path4367"
       inkscape:connector-curvature="0"
       sodipodi:nodetypes="cccccccc" />
    <path
       style="opacity:0.8;fill:#008c26;fill-opacity:0.19607843;fill-rule:evenodd;stroke:#005d00;stroke-width:10;stroke-linecap:round;stroke-linejoin:round;stroke-miterlimit:4;stroke-dasharray:none;stroke-dashoffset:0;stroke-opacity:1"
       id="path4643"
       sodipodi:type="arc"
       sodipodi:cx="379.80566"
       sodipodi:cy="572.54425"
       sodipodi:rx="72.14286"
       sodipodi:ry="72.14286"
       sodipodi:start="5.1968749"
       sodipodi:end="2.0943951"
       sodipodi:open="true"
       d="m 413.40645,508.70399 a 72.14286,72.14286 0 0 1 38.51755,61.95933 72.14286,72.14286 0 0 1 -35.23544,63.8829 72.14286,72.14286 0 0 1 -72.95433,0.47558" />
    <path
       style="opacity:0.8;fill:#008c26;fill-opacity:0.19607843;fill-rule:evenodd;stroke:#005d00;stroke-width:10;stroke-linecap:round;stroke-linejoin:round;stroke-miterlimit:4;stroke-dasharray:none;stroke-dashoffset:0;stroke-opacity:1"
       id="path4617"
       sodipodi:type="arc"
       sodipodi:cx="591.08899"
       sodipodi:cy="213.06427"
       sodipodi:rx="46.42857"
       sodipodi:ry="46.42857"
       sodipodi:start="0"
       sodipodi:end="3.1415927"
       sodipodi:open="true"
       d="m 637.51756,213.06427 a 46.42857,46.42857 0 0 1 -23.21429,40.20832 46.42857,46.42857 0 0 1 -46.42857,0 46.42857,46.42857 0 0 1 -23.21428,-40.20832"
       transform="matrix(0.68061805,0.73263843,-0.73263843,0.68061805,0,0)" />
    <path
       style="opacity:0.8;fill:#008c26;fill-opacity:0.19607843;fill-rule:evenodd;stroke:#005d00;stroke-width:10;stroke-linecap:round;stroke-linejoin:round;stroke-miterlimit:4;stroke-dasharray:none;stroke-dashoffset:0;stroke-opacity:1"
       id="path4635"
       sodipodi:type="arc"
       sodipodi:cx="-560.58972"
       sodipodi:cy="-127.37211"
       sodipodi:rx="27.857143"
       sodipodi:ry="27.857143"
       sodipodi:start="0"
       sodipodi:end="3.1415927"
       sodipodi:open="true"
       d="m -532.73258,-127.37211 a 27.857143,27.857143 0 0 1 -13.92857,24.125 27.857143,27.857143 0 0 1 -27.85714,-10e-6 27.857143,27.857143 0 0 1 -13.92858,-24.12499"
       transform="matrix(-0.78089806,-0.62465848,0.62465848,-0.78089806,0,0)" />
    <path
       style="opacity:0.8;fill:#008c26;fill-opacity:0.19607843;fill-rule:evenodd;stroke:#005d00;stroke-width:10;stroke-linecap:round;stroke-linejoin:round;stroke-miterlimit:4;stroke-dasharray:none;stroke-dashoffset:0;stroke-opacity:1"
       id="path4639"
       sodipodi:type="arc"
       sodipodi:cx="341.63678"
       sodipodi:cy="-421.97983"
       sodipodi:rx="17.142857"
       sodipodi:ry="17.142857"
       sodipodi:start="0"
       sodipodi:end="3.1415927"
       d="m 358.77964,-421.97983 a 17.142857,17.142857 0 0 1 -8.57143,14.84615 17.142857,17.142857 0 0 1 -17.14286,0 17.142857,17.142857 0 0 1 -8.57143,-14.84615"
       sodipodi:open="true"
       transform="matrix(-0.46042385,0.88769921,-0.88769921,-0.46042385,0,0)" />
    <path
       style="opacity:0.8;fill:#008c26;fill-opacity:0.19607843;fill-rule:evenodd;stroke:#005d00;stroke-width:10;stroke-linecap:round;stroke-linejoin:round;stroke-miterlimit:4;stroke-dasharray:none;stroke-dashoffset:0;stroke-opacity:1"
       id="path4641"
       sodipodi:type="arc"
       sodipodi:cx="690.52917"
       sodipodi:cy="-77.05864"
       sodipodi:rx="37.857143"
       sodipodi:ry="37.857143"
       sodipodi:start="5.1968749"
       sodipodi:end="2.0943951"
       d="m 708.16127,-110.55897 a 37.857143,37.857143 0 0 1 20.21218,32.513308 37.857143,37.857143 0 0 1 -18.48988,33.522707 37.857143,37.857143 0 0 1 -38.28297,0.249563"
       sodipodi:open="true"
       transform="matrix(0.36477357,0.93109626,-0.93109626,0.36477357,0,0)" />
    <path
       style="opacity:0.8;fill:#008c26;fill-opacity:0.19607843;fill-rule:evenodd;stroke:#005d00;stroke-width:10;stroke-linecap:round;stroke-linejoin:round;stroke-miterlimit:4;stroke-dasharray:none;stroke-dashoffset:0;stroke-opacity:1"
       id="path4647"
       sodipodi:type="arc"
       sodipodi:cx="-531.43518"
       sodipodi:cy="-158.23245"
       sodipodi:rx="32.857143"
       sodipodi:ry="32.857143"
       sodipodi:start="5.1968749"
       sodipodi:end="2.0943951"
       sodipodi:open="true"
       d="m -516.13185,-187.30822 a 32.857143,32.857143 0 0 1 17.54264,28.21911 32.857143,32.857143 0 0 1 -16.04782,29.09518 32.857143,32.857143 0 0 1 -33.22672,0.2166"
       transform="matrix(-0.76723341,-0.64136798,0.64136798,-0.76723341,0,0)" />
    <path
       style="opacity:0.8;fill:#008c26;fill-opacity:0.19607843;fill-rule:evenodd;stroke:#005d00;stroke-width:10;stroke-linecap:round;stroke-linejoin:round;stroke-miterlimit:4;stroke-dasharray:none;stroke-dashoffset:0;stroke-opacity:1"
       id="path4649"
       sodipodi:type="arc"
       sodipodi:cx="605.22687"
       sodipodi:cy="-191.97289"
       sodipodi:rx="47.142857"
       sodipodi:ry="47.142857"
       sodipodi:start="5.1968749"
       sodipodi:end="2.0943951"
       sodipodi:open="true"
       d="m 627.18382,-233.69028 a 47.142857,47.142857 0 0 1 25.16988,40.48827 47.142857,47.142857 0 0 1 -23.02514,41.74526 47.142857,47.142857 0 0 1 -47.67312,0.31078"
       transform="matrix(0.23276936,0.97253197,-0.97253197,0.23276936,0,0)" />
    <path
       style="opacity:0.8;fill:#008c26;fill-opacity:0.19607843;fill-rule:evenodd;stroke:#005d00;stroke-width:10;stroke-linecap:round;stroke-linejoin:round;stroke-miterlimit:4;stroke-dasharray:none;stroke-dashoffset:0;stroke-opacity:1"
       id="path4651"
       sodipodi:type="arc"
       sodipodi:cx="-635.29449"
       sodipodi:cy="-90.815544"
       sodipodi:rx="36.42857"
       sodipodi:ry="36.42857"
       sodipodi:start="0"
       sodipodi:end="3.1415927"
       sodipodi:open="true"
       d="m -598.86592,-90.815544 a 36.42857,36.42857 0 0 1 -18.21429,31.548067 36.42857,36.42857 0 0 1 -36.42857,-10e-7 36.42857,36.42857 0 0 1 -18.21428,-31.548068"
       transform="matrix(-0.68889715,-0.7248591,0.7248591,-0.68889715,0,0)" />
  </g>
</svg>
