<?xml version="1.0" encoding="UTF-8" standalone="no"?>
<!-- Created with Inkscape (http://www.inkscape.org/) -->

<svg
   xmlns:dc="http://purl.org/dc/elements/1.1/"
   xmlns:cc="http://creativecommons.org/ns#"
   xmlns:rdf="http://www.w3.org/1999/02/22-rdf-syntax-ns#"
   xmlns:svg="http://www.w3.org/2000/svg"
   xmlns="http://www.w3.org/2000/svg"
   xmlns:sodipodi="http://sodipodi.sourceforge.net/DTD/sodipodi-0.dtd"
   xmlns:inkscape="http://www.inkscape.org/namespaces/inkscape"
   width="17.089462"
   height="20.418898"
   id="svg2"
   version="1.1"
   inkscape:version="0.48.4 r9939"
   sodipodi:docname="Nouveau document 1">
  <defs
     id="defs4">
    <marker
       inkscape:stockid="Arrow1Lstart"
       orient="auto"
       refY="0"
       refX="0"
       id="Arrow1Lstart"
       style="overflow:visible">
      <path
         id="path3896"
         d="M 0,0 5,-5 -12.5,0 5,5 0,0 z"
         style="fill-rule:evenodd;stroke:#000000;stroke-width:1pt"
         transform="matrix(0.8,0,0,0.8,10,0)"
         inkscape:connector-curvature="0" />
    </marker>
  </defs>
  <sodipodi:namedview
     id="base"
     pagecolor="#ffffff"
     bordercolor="#666666"
     borderopacity="1.0"
     inkscape:pageopacity="0.0"
     inkscape:pageshadow="2"
     inkscape:zoom="32"
     inkscape:cx="11.853975"
     inkscape:cy="11.812661"
     inkscape:document-units="px"
     inkscape:current-layer="layer1"
     showgrid="true"
     inkscape:snap-bbox="true"
     inkscape:snap-bbox-midpoints="true"
     inkscape:snap-global="false"
     fit-margin-top="0"
     fit-margin-left="0"
     fit-margin-right="0"
     fit-margin-bottom="0"
     inkscape:window-width="1920"
     inkscape:window-height="1058"
     inkscape:window-x="-8"
     inkscape:window-y="-8"
     inkscape:window-maximized="1">
    <inkscape:grid
       type="xygrid"
       id="grid3849"
       empspacing="5"
       visible="true"
       enabled="true"
       snapvisiblegridlinesonly="true"
       originx="-309.0811px"
       originy="-900.0811px" />
  </sodipodi:namedview>
  <metadata
     id="metadata7">
    <rdf:RDF>
      <cc:Work
         rdf:about="">
        <dc:format>image/svg+xml</dc:format>
        <dc:type
           rdf:resource="http://purl.org/dc/dcmitype/StillImage" />
        <dc:title></dc:title>
      </cc:Work>
    </rdf:RDF>
  </metadata>
  <g
     inkscape:label="Calque 1"
     inkscape:groupmode="layer"
     id="layer1"
     transform="translate(-309.0811,-131.86218)">
    <path
       sodipodi:type="arc"
       style="fill:#00ff00;fill-opacity:1;fill-rule:nonzero;stroke:none"
       id="path3817"
       sodipodi:cx="209.85919"
       sodipodi:cy="125.29469"
       sodipodi:rx="42.17387"
       sodipodi:ry="42.17387"
       d="m 252.03306,125.29469 c 0,23.29199 -18.88188,42.17387 -42.17387,42.17387 -23.29198,0 -42.17387,-18.88188 -42.17387,-42.17387 0,-23.29198 18.88189,-42.173867 42.17387,-42.173867 23.29199,0 42.17387,18.881887 42.17387,42.173867 z"
       transform="matrix(0.04549976,0,0,0.04549976,307.45146,144.6613)" />
    <text
       xml:space="preserve"
       style="font-size:1.81999028px;font-style:normal;font-variant:normal;font-weight:normal;font-stretch:normal;line-height:125%;letter-spacing:0px;word-spacing:0px;fill:#000000;fill-opacity:1;stroke:none;font-family:Century Gothic;-inkscape-font-specification:Century Gothic"
       x="315.83417"
       y="151.04878"
       id="text2987"
       sodipodi:linespacing="125%"><tspan
         sodipodi:role="line"
         id="tspan2989"
         x="315.83417"
         y="151.04878">2</tspan></text>
    <path
       id="path3004"
       d="m 317.42824,149.41309 c 0.3183,0 0.57633,0.27416 0.57633,0.61235 0,0.22666 -0.28817,0.44851 -0.28817,0.53043 l 0,0.226 -0.57632,-0.072 0,-0.15397 c 0,-0.0622 -0.28817,-0.30377 -0.28817,-0.53043 0,-0.33819 0.25803,-0.61235 0.57633,-0.61235 z"
       inkscape:connector-curvature="0"
       style="fill:#ffff00;fill-opacity:1;stroke:#000000;stroke-width:0.04549976;stroke-linejoin:round;stroke-miterlimit:4;stroke-opacity:1;stroke-dasharray:none"
       sodipodi:nodetypes="sssccsss" />
    <path
       id="path3004-7"
       d="m 317.28131,151.37377 0,-0.12607 0.28817,0.054 0,0.072 z m -0.14408,-0.23413 0,-0.12608 0.57633,0.072 0,0.12607 z m 0.57633,-0.14408 -0.57633,-0.072 0,-0.12608 0.57633,0.072 z"
       inkscape:connector-curvature="0"
       style="fill:#000000;fill-opacity:1;stroke:none"
       sodipodi:nodetypes="ccccccccccccccc" />
    <path
       sodipodi:type="arc"
       style="fill:#ff0000;fill-opacity:1;fill-rule:nonzero;stroke:none"
       id="path3817-8"
       sodipodi:cx="209.85919"
       sodipodi:cy="125.29469"
       sodipodi:rx="42.17387"
       sodipodi:ry="42.17387"
       d="m 252.03306,125.29469 c 0,23.29199 -18.88188,42.17387 -42.17387,42.17387 -23.29198,0 -42.17387,-18.88188 -42.17387,-42.17387 0,-23.29198 18.88189,-42.173867 42.17387,-42.173867 23.29199,0 42.17387,18.881887 42.17387,42.173867 z"
       transform="matrix(0.04549976,0,0,0.04549976,313.45146,144.6613)" />
    <text
       xml:space="preserve"
       style="font-size:1.81999028px;font-style:normal;font-variant:normal;font-weight:normal;font-stretch:normal;line-height:125%;letter-spacing:0px;word-spacing:0px;fill:#000000;fill-opacity:1;stroke:none;font-family:Century Gothic;-inkscape-font-specification:Century Gothic"
       x="321.83414"
       y="151.04878"
       id="text2987-4"
       sodipodi:linespacing="125%"><tspan
         sodipodi:role="line"
         id="tspan2989-5"
         x="321.83414"
         y="151.04878">3</tspan></text>
    <path
       id="path3004-5"
       d="m 323.42824,149.41309 c 0.3183,0 0.57633,0.27416 0.57633,0.61235 0,0.22666 -0.28817,0.44851 -0.28817,0.53043 l 0,0.226 -0.57632,-0.072 0,-0.15397 c 0,-0.0622 -0.28817,-0.30377 -0.28817,-0.53043 0,-0.33819 0.25803,-0.61235 0.57633,-0.61235 z"
       inkscape:connector-curvature="0"
       style="fill:#ffff00;fill-opacity:1;stroke:#000000;stroke-width:0.04549976;stroke-linejoin:round;stroke-miterlimit:4;stroke-opacity:1;stroke-dasharray:none"
       sodipodi:nodetypes="sssccsss" />
    <path
       id="path3004-7-1"
       d="m 323.28131,151.37377 0,-0.12607 0.28817,0.054 0,0.072 z m -0.14408,-0.23413 0,-0.12608 0.57633,0.072 0,0.12607 z m 0.57633,-0.14408 -0.57633,-0.072 0,-0.12608 0.57633,0.072 z"
       inkscape:connector-curvature="0"
       style="fill:#000000;fill-opacity:1;stroke:none"
       sodipodi:nodetypes="ccccccccccccccc" />
    <path
       transform="matrix(0.04549976,0,0,0.04549976,304.45146,139.6613)"
       d="m 252.03306,125.29469 c 0,23.29199 -18.88188,42.17387 -42.17387,42.17387 -23.29198,0 -42.17387,-18.88188 -42.17387,-42.17387 0,-23.29198 18.88189,-42.173867 42.17387,-42.173867 23.29199,0 42.17387,18.881887 42.17387,42.173867 z"
       sodipodi:ry="42.17387"
       sodipodi:rx="42.17387"
       sodipodi:cy="125.29469"
       sodipodi:cx="209.85919"
       id="path3817-8-7"
       style="fill:#ff0000;fill-opacity:1;fill-rule:nonzero;stroke:none"
       sodipodi:type="arc" />
    <text
       xml:space="preserve"
       style="font-size:1.81999028px;font-style:normal;font-variant:normal;font-weight:normal;font-stretch:normal;line-height:125%;letter-spacing:0px;word-spacing:0px;fill:#000000;fill-opacity:1;stroke:none;font-family:Century Gothic;-inkscape-font-specification:Century Gothic"
       x="312.8342"
       y="146.0488"
       id="text2987-4-1"
       sodipodi:linespacing="125%"><tspan
         sodipodi:role="line"
         id="tspan2989-5-1"
         x="312.8342"
         y="146.0488">8</tspan></text>
    <path
       id="path3004-5-5"
       d="m 314.42825,144.4131 c 0.3183,0 0.57633,0.27416 0.57633,0.61235 0,0.22666 -0.28817,0.44851 -0.28817,0.53043 l 0,0.226 -0.57632,-0.072 0,-0.15397 c 0,-0.0622 -0.28817,-0.30377 -0.28817,-0.53043 0,-0.33819 0.25803,-0.61235 0.57633,-0.61235 z"
       inkscape:connector-curvature="0"
       style="fill:#ffff00;fill-opacity:1;stroke:#000000;stroke-width:0.04549976;stroke-linejoin:round;stroke-miterlimit:4;stroke-opacity:1;stroke-dasharray:none"
       sodipodi:nodetypes="sssccsss" />
    <path
       id="path3004-7-1-2"
       d="m 314.28132,146.37378 0,-0.12607 0.28817,0.054 0,0.072 z m -0.14408,-0.23413 0,-0.12608 0.57633,0.072 0,0.12607 z m 0.57633,-0.14408 -0.57633,-0.072 0,-0.12608 0.57633,0.072 z"
       inkscape:connector-curvature="0"
       style="fill:#000000;fill-opacity:1;stroke:none"
       sodipodi:nodetypes="ccccccccccccccc" />
    <path
       transform="matrix(0.04549976,0,0,0.04549976,310.45146,139.6613)"
       d="m 252.03306,125.29469 c 0,23.29199 -18.88188,42.17387 -42.17387,42.17387 -23.29198,0 -42.17387,-18.88188 -42.17387,-42.17387 0,-23.29198 18.88189,-42.173867 42.17387,-42.173867 23.29199,0 42.17387,18.881887 42.17387,42.173867 z"
       sodipodi:ry="42.17387"
       sodipodi:rx="42.17387"
       sodipodi:cy="125.29469"
       sodipodi:cx="209.85919"
       id="path3817-8-7-7"
       style="fill:#00ff00;fill-opacity:1;fill-rule:nonzero;stroke:none"
       sodipodi:type="arc" />
    <text
       xml:space="preserve"
       style="font-size:1.81999028px;font-style:normal;font-variant:normal;font-weight:normal;font-stretch:normal;line-height:125%;letter-spacing:0px;word-spacing:0px;fill:#000000;fill-opacity:1;stroke:none;font-family:Century Gothic;-inkscape-font-specification:Century Gothic"
       x="318.8342"
       y="146.04883"
       id="text2987-4-1-6"
       sodipodi:linespacing="125%"><tspan
         sodipodi:role="line"
         id="tspan2989-5-1-1"
         x="318.8342"
         y="146.04883">2</tspan></text>
    <path
       id="path3004-5-5-4"
       d="m 320.42825,144.4131 c 0.3183,0 0.57633,0.27416 0.57633,0.61235 0,0.22666 -0.28817,0.44851 -0.28817,0.53043 l 0,0.226 -0.57632,-0.072 0,-0.15397 c 0,-0.0622 -0.28817,-0.30377 -0.28817,-0.53043 0,-0.33819 0.25803,-0.61235 0.57633,-0.61235 z"
       inkscape:connector-curvature="0"
       style="fill:#ffff00;fill-opacity:1;stroke:#000000;stroke-width:0.04549976;stroke-linejoin:round;stroke-miterlimit:4;stroke-opacity:1;stroke-dasharray:none"
       sodipodi:nodetypes="sssccsss" />
    <path
       id="path3004-7-1-2-2"
       d="m 320.28132,146.37378 0,-0.12607 0.28817,0.054 0,0.072 z m -0.14408,-0.23413 0,-0.12608 0.57633,0.072 0,0.12607 z m 0.57633,-0.14408 -0.57633,-0.072 0,-0.12608 0.57633,0.072 z"
       inkscape:connector-curvature="0"
       style="fill:#000000;fill-opacity:1;stroke:none"
       sodipodi:nodetypes="ccccccccccccccc" />
    <path
       transform="matrix(0.04549976,0,0,0.04549976,301.45146,134.6613)"
       d="m 252.03306,125.29469 c 0,23.29199 -18.88188,42.17387 -42.17387,42.17387 -23.29198,0 -42.17387,-18.88188 -42.17387,-42.17387 0,-23.29198 18.88189,-42.173867 42.17387,-42.173867 23.29199,0 42.17387,18.881887 42.17387,42.173867 z"
       sodipodi:ry="42.17387"
       sodipodi:rx="42.17387"
       sodipodi:cy="125.29469"
       sodipodi:cx="209.85919"
       id="path3817-8-7-2"
       style="fill:#00ff00;fill-opacity:1;fill-rule:nonzero;stroke:none"
       sodipodi:type="arc" />
    <text
       xml:space="preserve"
       style="font-size:1.81999028px;font-style:normal;font-variant:normal;font-weight:normal;font-stretch:normal;line-height:125%;letter-spacing:0px;word-spacing:0px;fill:#000000;fill-opacity:1;stroke:none;font-family:Century Gothic;-inkscape-font-specification:Century Gothic"
       x="309.8342"
       y="141.0488"
       id="text2987-4-1-1"
       sodipodi:linespacing="125%"><tspan
         sodipodi:role="line"
         id="tspan2989-5-1-6"
         x="309.8342"
         y="141.0488">8</tspan></text>
    <path
       id="path3004-5-5-8"
       d="m 311.42825,139.4131 c 0.3183,0 0.57633,0.27416 0.57633,0.61235 0,0.22666 -0.28817,0.44851 -0.28817,0.53043 l 0,0.226 -0.57632,-0.072 0,-0.15397 c 0,-0.0622 -0.28817,-0.30377 -0.28817,-0.53043 0,-0.33819 0.25803,-0.61235 0.57633,-0.61235 z"
       inkscape:connector-curvature="0"
       style="fill:#ffff00;fill-opacity:1;stroke:#000000;stroke-width:0.04549976;stroke-linejoin:round;stroke-miterlimit:4;stroke-opacity:1;stroke-dasharray:none"
       sodipodi:nodetypes="sssccsss" />
    <path
       id="path3004-7-1-2-5"
       d="m 311.28132,141.37378 0,-0.12607 0.28817,0.054 0,0.072 z m -0.14408,-0.23413 0,-0.12608 0.57633,0.072 0,0.12607 z m 0.57633,-0.14408 -0.57633,-0.072 0,-0.12608 0.57633,0.072 z"
       inkscape:connector-curvature="0"
       style="fill:#000000;fill-opacity:1;stroke:none"
       sodipodi:nodetypes="ccccccccccccccc" />
    <path
       transform="matrix(0.04549976,0,0,0.04549976,307.45147,134.66131)"
       d="m 252.03306,125.29469 c 0,23.29199 -18.88188,42.17387 -42.17387,42.17387 -23.29198,0 -42.17387,-18.88188 -42.17387,-42.17387 0,-23.29198 18.88189,-42.173867 42.17387,-42.173867 23.29199,0 42.17387,18.881887 42.17387,42.173867 z"
       sodipodi:ry="42.17387"
       sodipodi:rx="42.17387"
       sodipodi:cy="125.29469"
       sodipodi:cx="209.85919"
       id="path3817-8-7-7-6"
       style="fill:#ff0000;fill-opacity:1;fill-rule:nonzero;stroke:none"
       sodipodi:type="arc" />
    <text
       xml:space="preserve"
       style="font-size:1.81999028px;font-style:normal;font-variant:normal;font-weight:normal;font-stretch:normal;line-height:125%;letter-spacing:0px;word-spacing:0px;fill:#000000;fill-opacity:1;stroke:none;font-family:Century Gothic;-inkscape-font-specification:Century Gothic"
       x="315.8342"
       y="141.04883"
       id="text2987-4-1-6-1"
       sodipodi:linespacing="125%"><tspan
         sodipodi:role="line"
         id="tspan2989-5-1-1-8"
         x="315.8342"
         y="141.04883">9</tspan></text>
    <path
       id="path3004-5-5-4-9"
       d="m 317.42826,139.41311 c 0.3183,0 0.57633,0.27416 0.57633,0.61235 0,0.22666 -0.28817,0.44851 -0.28817,0.53043 l 0,0.226 -0.57632,-0.072 0,-0.15397 c 0,-0.0622 -0.28817,-0.30377 -0.28817,-0.53043 0,-0.33819 0.25803,-0.61235 0.57633,-0.61235 z"
       inkscape:connector-curvature="0"
       style="fill:#ffff00;fill-opacity:1;stroke:#000000;stroke-width:0.04549976;stroke-linejoin:round;stroke-miterlimit:4;stroke-opacity:1;stroke-dasharray:none"
       sodipodi:nodetypes="sssccsss" />
    <path
       id="path3004-7-1-2-2-2"
       d="m 317.28133,141.37379 0,-0.12607 0.28817,0.054 0,0.072 z m -0.14408,-0.23413 0,-0.12608 0.57633,0.072 0,0.12607 z m 0.57633,-0.14408 -0.57633,-0.072 0,-0.12608 0.57633,0.072 z"
       inkscape:connector-curvature="0"
       style="fill:#000000;fill-opacity:1;stroke:none"
       sodipodi:nodetypes="ccccccccccccccc" />
    <path
       transform="matrix(0.04549976,0,0,0.04549976,301.45146,128.6613)"
       d="m 252.03306,125.29469 c 0,23.29199 -18.88188,42.17387 -42.17387,42.17387 -23.29198,0 -42.17387,-18.88188 -42.17387,-42.17387 0,-23.29198 18.88189,-42.173867 42.17387,-42.173867 23.29199,0 42.17387,18.881887 42.17387,42.173867 z"
       sodipodi:ry="42.17387"
       sodipodi:rx="42.17387"
       sodipodi:cy="125.29469"
       sodipodi:cx="209.85919"
       id="path3817-8-7-2-9"
       style="fill:#00ff00;fill-opacity:1;fill-rule:nonzero;stroke:none"
       sodipodi:type="arc" />
    <text
       xml:space="preserve"
       style="font-size:1.81999028px;font-style:normal;font-variant:normal;font-weight:normal;font-stretch:normal;line-height:125%;letter-spacing:0px;word-spacing:0px;fill:#000000;fill-opacity:1;stroke:none;font-family:Century Gothic;-inkscape-font-specification:Century Gothic"
       x="309.8342"
       y="135.0488"
       id="text2987-4-1-1-5"
       sodipodi:linespacing="125%"><tspan
         sodipodi:role="line"
         id="tspan2989-5-1-6-4"
         x="309.8342"
         y="135.0488">8</tspan></text>
    <path
       id="path3004-5-5-8-3"
       d="m 311.42825,133.4131 c 0.3183,0 0.57633,0.27416 0.57633,0.61235 0,0.22666 -0.28817,0.44851 -0.28817,0.53043 l 0,0.226 -0.57632,-0.072 0,-0.15397 c 0,-0.0622 -0.28817,-0.30377 -0.28817,-0.53043 0,-0.33819 0.25803,-0.61235 0.57633,-0.61235 z"
       inkscape:connector-curvature="0"
       style="fill:#ffff00;fill-opacity:1;stroke:#000000;stroke-width:0.04549976;stroke-linejoin:round;stroke-miterlimit:4;stroke-opacity:1;stroke-dasharray:none"
       sodipodi:nodetypes="sssccsss" />
    <path
       id="path3004-7-1-2-5-1"
       d="m 311.28132,135.37378 0,-0.12607 0.28817,0.054 0,0.072 z m -0.14408,-0.23413 0,-0.12608 0.57633,0.072 0,0.12607 z m 0.57633,-0.14408 -0.57633,-0.072 0,-0.12608 0.57633,0.072 z"
       inkscape:connector-curvature="0"
       style="fill:#000000;fill-opacity:1;stroke:none"
       sodipodi:nodetypes="ccccccccccccccc" />
    <path
       style="fill:none;stroke:#000000;stroke-width:0.2;stroke-linecap:butt;stroke-linejoin:miter;stroke-miterlimit:4;stroke-opacity:1;stroke-dasharray:none"
       d="m 311,136.36218 0,2"
       id="path4801"
       inkscape:connector-curvature="0" />
    <path
       style="fill:none;stroke:#000000;stroke-width:0.2;stroke-linecap:butt;stroke-linejoin:miter;stroke-miterlimit:4;stroke-opacity:1;stroke-dasharray:none"
       d="m 313,140.36218 2,0"
       id="path4803"
       inkscape:connector-curvature="0" />
    <text
       xml:space="preserve"
       style="font-size:1.81999028px;font-style:normal;font-variant:normal;font-weight:normal;font-stretch:normal;line-height:125%;letter-spacing:0px;word-spacing:0px;fill:#000000;fill-opacity:1;stroke:none;font-family:Tahoma;-inkscape-font-specification:Tahoma"
       x="313.54633"
       y="140.03712"
       id="text2987-4-1-1-4"
       sodipodi:linespacing="125%"><tspan
         sodipodi:role="line"
         id="tspan2989-5-1-6-2"
         x="313.54633"
         y="140.03712">?</tspan></text>
    <path
       style="fill:none;stroke:#000000;stroke-width:0.2;stroke-linecap:butt;stroke-linejoin:miter;stroke-miterlimit:4;stroke-opacity:1;stroke-dasharray:none"
       d="m 316.00001,145.36218 2,0"
       id="path4803-7"
       inkscape:connector-curvature="0" />
    <text
       xml:space="preserve"
       style="font-size:1.81999028px;font-style:normal;font-variant:normal;font-weight:normal;font-stretch:normal;line-height:125%;letter-spacing:0px;word-spacing:0px;fill:#000000;fill-opacity:1;stroke:none;font-family:Tahoma;-inkscape-font-specification:Tahoma"
       x="316.54633"
       y="145.03712"
       id="text2987-4-1-1-4-7"
       sodipodi:linespacing="125%"><tspan
         sodipodi:role="line"
         id="tspan2989-5-1-6-2-9"
         x="316.54633"
         y="145.03712">?</tspan></text>
    <path
       style="fill:none;stroke:#000000;stroke-width:0.2;stroke-linecap:butt;stroke-linejoin:miter;stroke-miterlimit:4;stroke-opacity:1;stroke-dasharray:none"
       d="m 314,140.36218 0,3"
       id="path4801-3"
       inkscape:connector-curvature="0"
       sodipodi:nodetypes="cc" />
    <path
       style="fill:none;stroke:#000000;stroke-width:0.2;stroke-linecap:butt;stroke-linejoin:miter;stroke-miterlimit:4;stroke-opacity:1;stroke-dasharray:none"
       d="m 317,145.36218 0,3"
       id="path4801-3-1"
       inkscape:connector-curvature="0"
       sodipodi:nodetypes="cc" />
    <path
       style="fill:none;stroke:#000000;stroke-width:0.2;stroke-linecap:butt;stroke-linejoin:miter;stroke-miterlimit:4;stroke-opacity:1;stroke-dasharray:none"
       d="m 319.00002,150.36218 2,0"
       id="path4803-7-9"
       inkscape:connector-curvature="0" />
    <text
       xml:space="preserve"
       style="font-size:1.81999028px;font-style:normal;font-variant:normal;font-weight:normal;font-stretch:normal;line-height:125%;letter-spacing:0px;word-spacing:0px;fill:#000000;fill-opacity:1;stroke:none;font-family:Tahoma;-inkscape-font-specification:Tahoma"
       x="319.54633"
       y="150.03712"
       id="text2987-4-1-1-4-7-8"
       sodipodi:linespacing="125%"><tspan
         sodipodi:role="line"
         id="tspan2989-5-1-6-2-9-6"
         x="319.54633"
         y="150.03712">?</tspan></text>
    <path
       sodipodi:type="arc"
       style="fill:#0000ff;fill-opacity:1;fill-rule:nonzero;stroke:none"
       id="path4910"
       sodipodi:cx="323.5"
       sodipodi:cy="133.86218"
       sodipodi:rx="2.5"
       sodipodi:ry="2.5"
       d="m 326,133.86218 c 0,1.38071 -1.11929,2.5 -2.5,2.5 -1.38071,0 -2.5,-1.11929 -2.5,-2.5 0,-1.38071 1.11929,-2.5 2.5,-2.5 1.38071,0 2.5,1.11929 2.5,2.5 z"
       transform="translate(-1.5,0.5)" />
    <text
       xml:space="preserve"
       style="font-size:0.73625338px;font-style:normal;font-variant:normal;font-weight:normal;font-stretch:normal;line-height:125%;letter-spacing:0px;word-spacing:0px;fill:#ffffff;fill-opacity:1;stroke:none;font-family:Century Gothic;-inkscape-font-specification:Century Gothic"
       x="320.056"
       y="134.56171"
       id="text2987-4-1-1-5-5"
       sodipodi:linespacing="125%"><tspan
         sodipodi:role="line"
         id="tspan2989-5-1-6-4-0"
         x="320.056"
         y="134.56171">Algorithme</tspan></text>
    <path
       style="fill:none;stroke:#0000ff;stroke-width:0.2;stroke-linecap:round;stroke-linejoin:round;stroke-miterlimit:4;stroke-opacity:1;stroke-dasharray:none"
       d="m 313.28726,134.84832 c 3.2662,2.90339 5.62472,3.68597 8.71274,2.51386"
       id="path4935"
       inkscape:connector-curvature="0"
       sodipodi:nodetypes="cc" />
    <text
       xml:space="preserve"
       style="font-size:0.55977106px;font-style:normal;font-variant:normal;font-weight:normal;font-stretch:normal;line-height:125%;letter-spacing:0px;word-spacing:0px;fill:#0000ff;fill-opacity:1;stroke:none;font-family:Century Gothic;-inkscape-font-specification:Century Gothic"
       x="313.82446"
       y="134.76523"
       id="text2987-4-1-1-5-5-2"
       sodipodi:linespacing="125%"><tspan
         sodipodi:role="line"
         id="tspan2989-5-1-6-4-0-8"
         x="313.82446"
         y="134.76523">Trouve</tspan></text>
    <path
       style="fill:none;stroke:#0000ff;stroke-width:0.2;stroke-linecap:round;stroke-linejoin:round;stroke-miterlimit:4;stroke-opacity:1;stroke-dasharray:none"
       d="m 319.50823,139.80412 c 2.03311,-0.46393 2.52457,-0.95985 2.49177,-2.44194"
       id="path4935-6"
       inkscape:connector-curvature="0"
       sodipodi:nodetypes="cc" />
    <path
       style="fill:none;stroke:#0000ff;stroke-width:0.2;stroke-linecap:round;stroke-linejoin:round;stroke-miterlimit:4;stroke-opacity:1;stroke-dasharray:none"
       d="m 320.81759,143.05282 c 1.72232,-1.32955 3.12204,-3.05336 1.18241,-5.69064"
       id="path4935-6-4"
       inkscape:connector-curvature="0"
       sodipodi:nodetypes="cc" />
    <path
       style="fill:none;stroke:#0000ff;stroke-width:0.2;stroke-linecap:round;stroke-linejoin:round;stroke-miterlimit:4;stroke-opacity:1;stroke-dasharray:none"
       d="m 323.68501,147.89814 c 1.83162,-3.99941 2.11793,-8.59396 -1.68501,-10.53596"
       id="path4935-6-8"
       inkscape:connector-curvature="0"
       sodipodi:nodetypes="cc" />
    <text
       xml:space="preserve"
       style="font-size:0.55977106px;font-style:normal;font-variant:normal;font-weight:normal;font-stretch:normal;line-height:125%;letter-spacing:0px;word-spacing:0px;fill:#0000ff;fill-opacity:1;stroke:none;font-family:Century Gothic;-inkscape-font-specification:Century Gothic"
       x="324.41199"
       y="147.99718"
       id="text2987-4-1-1-5-5-2-6"
       sodipodi:linespacing="125%"><tspan
         sodipodi:role="line"
         id="tspan2989-5-1-6-4-0-8-5"
         x="324.41199"
         y="147.99718">Trouve</tspan></text>
    <text
       xml:space="preserve"
       style="font-size:0.55977106px;font-style:normal;font-variant:normal;font-weight:normal;font-stretch:normal;line-height:125%;letter-spacing:0px;word-spacing:0px;fill:#0000ff;fill-opacity:1;stroke:none;font-family:Century Gothic;-inkscape-font-specification:Century Gothic"
       x="321.43546"
       y="143.23605"
       id="text2987-4-1-1-5-5-2-0"
       sodipodi:linespacing="125%"><tspan
         sodipodi:role="line"
         id="tspan2989-5-1-6-4-0-8-9"
         x="321.43546"
         y="143.23605">Trouve</tspan></text>
    <text
       xml:space="preserve"
       style="font-size:0.55977106px;font-style:normal;font-variant:normal;font-weight:normal;font-stretch:normal;line-height:125%;letter-spacing:0px;word-spacing:0px;fill:#0000ff;fill-opacity:1;stroke:none;font-family:Century Gothic;-inkscape-font-specification:Century Gothic"
       x="319.93314"
       y="140.30885"
       id="text2987-4-1-1-5-5-2-00"
       sodipodi:linespacing="125%"><tspan
         sodipodi:role="line"
         id="tspan2989-5-1-6-4-0-8-6"
         x="319.93314"
         y="140.30885">Trouve</tspan></text>
  </g>
</svg>
