<?xml version="1.0" encoding="UTF-8" standalone="no"?>
<svg
   xmlns:dc="http://purl.org/dc/elements/1.1/"
   xmlns:cc="http://creativecommons.org/ns#"
   xmlns:rdf="http://www.w3.org/1999/02/22-rdf-syntax-ns#"
   xmlns:svg="http://www.w3.org/2000/svg"
   xmlns="http://www.w3.org/2000/svg"
   xmlns:sodipodi="http://sodipodi.sourceforge.net/DTD/sodipodi-0.dtd"
   xmlns:inkscape="http://www.inkscape.org/namespaces/inkscape"
   version="1.1"
   width="76"
   height="76"
   viewBox="0 0 76.00 76.00"
   enable-background="new 0 0 76.00 76.00"
   xml:space="preserve"
   id="svg2"
   inkscape:version="0.91 r13725"
   sodipodi:docname="money.svg"><metadata
     id="metadata10"><rdf:RDF><cc:Work
         rdf:about=""><dc:format>image/svg+xml</dc:format><dc:type
           rdf:resource="http://purl.org/dc/dcmitype/StillImage" /></cc:Work></rdf:RDF></metadata><defs
     id="defs8" /><sodipodi:namedview
     pagecolor="#ffffff"
     bordercolor="#666666"
     borderopacity="1"
     objecttolerance="10"
     gridtolerance="10"
     guidetolerance="10"
     inkscape:pageopacity="0"
     inkscape:pageshadow="2"
     inkscape:window-width="1846"
     inkscape:window-height="1058"
     id="namedview6"
     showgrid="false"
     inkscape:zoom="8.7830105"
     inkscape:cx="43.712245"
     inkscape:cy="34.798859"
     inkscape:window-x="1912"
     inkscape:window-y="-8"
     inkscape:window-maximized="1"
     inkscape:current-layer="svg2" /><path
     style="fill:#000000;fill-opacity:1;stroke-width:0.2;stroke-linejoin:round"
     d="M 49.533203 15.041016 L 16.625 34.041016 L 26.125 50.496094 L 59.033203 31.496094 L 49.533203 15.041016 z M 38 25.333984 C 41.935 25.333984 45.125 28.523984 45.125 32.458984 C 45.125 36.394084 41.935 39.583984 38 39.583984 C 34.065 39.583984 30.875 36.394084 30.875 32.458984 C 30.875 28.523984 34.065 25.333984 38 25.333984 z M 38.181641 27.568359 C 37.915926 27.595829 37.615281 27.661404 37.279297 27.767578 C 36.943293 27.873766 36.597779 28.027333 36.246094 28.226562 C 35.695628 28.547866 35.255297 28.940335 34.923828 29.404297 C 34.592339 29.868271 34.374456 30.380324 34.271484 30.939453 C 34.142336 31.578655 34.190827 32.261696 34.414062 32.988281 L 33.640625 33.433594 L 34.099609 34.228516 L 34.748047 33.855469 L 34.955078 34.240234 L 35.080078 34.455078 L 34.443359 34.822266 L 34.902344 35.617188 L 35.652344 35.185547 C 36.115858 35.735595 36.616362 36.114001 37.154297 36.322266 C 37.716289 36.550772 38.301567 36.633096 38.910156 36.570312 C 39.518745 36.507533 40.112282 36.311033 40.691406 35.978516 C 41.0635 35.757814 41.383057 35.513267 41.648438 35.248047 C 41.913806 34.982807 42.11473 34.73835 42.251953 34.511719 L 41.251953 33.419922 C 41.163403 33.56218 41.016897 33.735277 40.814453 33.9375 C 40.612029 34.13971 40.37549 34.322361 40.105469 34.484375 C 39.814123 34.654505 39.513031 34.765877 39.201172 34.820312 C 38.889313 34.874752 38.579187 34.852606 38.271484 34.753906 C 37.98522 34.658966 37.702597 34.461278 37.421875 34.162109 L 40.326172 32.486328 L 39.867188 31.691406 L 36.800781 33.460938 L 36.683594 33.259766 C 36.602664 33.124278 36.530854 32.990931 36.46875 32.861328 L 39.525391 31.097656 L 39.064453 30.302734 L 36.183594 31.964844 C 36.079199 31.60588 36.05505 31.278872 36.111328 30.984375 C 36.167578 30.662039 36.288151 30.380615 36.470703 30.136719 C 36.653255 29.892822 36.881474 29.690871 37.15625 29.533203 C 37.416336 29.387969 37.675815 29.279414 37.935547 29.207031 C 38.195259 29.134661 38.421854 29.08863 38.615234 29.068359 L 38.181641 27.568359 z M 56.585938 35.097656 L 25.734375 53.304688 L 18.291016 40.414062 L 17.027344 41.205078 L 25.734375 56.472656 L 57.851562 37.472656 L 56.585938 35.097656 z M 56.355469 40.685547 L 25.503906 59.289062 L 18.060547 46.792969 L 16.400391 47.980469 L 25.503906 62.060547 L 58.017578 42.664062 L 56.355469 40.685547 z "
     id="path4" /></svg>