<?xml version="1.0" encoding="UTF-8"?>
<!DOCTYPE svg PUBLIC "-//W3C//DTD SVG 1.1//EN" "http://www.w3.org/Graphics/SVG/1.1/DTD/svg11.dtd">
<svg width="445mm" height="445mm" viewBox="0 0 44500 44500" stroke-width="28.222" stroke-linejoin="round" xml:space="preserve">
 <rect fill="none" stroke="none" x="0" y="0" width="44450" height="44450"/>
 <path fill="rgb(108,80,152)" stroke="rgb(108,80,152)" d="M 0,0 L -21086,0 -21086,-21086 0,-21086 0,0 Z M 17793,15921 L 17793,17807 19302,17807 19302,19060 19302,20299 19302,26616 17793,26616 17793,28515 26926,28515 26926,23343 23720,26549 22319,26549 22319,17807 24003,17807 24003,15921 17793,15921 Z M 28044,15921 L 28044,17807 29553,17807 29553,26549 28111,26549 28111,28515 -30165,28515 -29653,28448 -29168,28313 -28710,28098 -28265,27842 -27902,27559 -27578,27236 -27282,26886 -27040,26495 -26851,26118 -26730,25714 -26662,25310 -26649,24892 -26689,24474 -26770,24057 -26905,23666 -27093,23289 -27322,22925 -27578,22629 -27875,22360 -28198,22117 -28562,21942 -28939,21807 -28602,21646 -28279,21430 -27996,21188 -27753,20892 -27538,20582 -27363,20231 -27242,19881 -27134,19423 -27107,18965 -27147,18494 -27255,18049 -27444,17618 -27686,17214 -27982,16864 -28333,16568 -28723,16312 -29141,16123 -29585,15989 -29949,15935 -30313,15908 -30676,15908 -31040,15908 28044,15921 Z M 4984,15948 L 4997,16904 4997,17847 6385,17847 6385,24178 6398,24825 6412,25458 6492,26104 6587,26549 6762,26966 6977,27370 7247,27734 7503,28004 7785,28232 8095,28421 8432,28569 8890,28731 9375,28825 9860,28893 10345,28919 10870,28933 11409,28893 11921,28825 12392,28717 12837,28556 13268,28340 13672,28071 13995,27788 14291,27465 14547,27101 14749,26710 14897,26279 14992,25835 15046,25377 15073,24919 15073,24461 15073,17847 16662,17847 16662,15948 12002,15948 12002,17847 12998,17847 12998,24461 12998,24784 12985,25108 12917,25417 12783,25754 12581,26050 12338,26293 12042,26495 11719,26630 11368,26697 11059,26697 10749,26670 10439,26589 10156,26468 9914,26279 9725,26064 9577,25821 9483,25552 9429,25269 9402,24986 9402,23343 9402,17847 10506,17847 10533,15948 4984,15948 Z"/>
 <path fill="none" stroke="rgb(108,80,152)" d="M 0,0 L -21086,0 -21086,-21086 0,-21086 0,0 Z"/>
 <path fill="none" stroke="rgb(108,80,152)" d="M 17793,15921 L 17793,17807 19302,17807 19302,19060 19302,20299 19302,26616 17793,26616 17793,28515 26926,28515 26926,23343 23720,26549 22319,26549 22319,17807 24003,17807 24003,15921 17793,15921 Z"/>
 <path fill="none" stroke="rgb(108,80,152)" d="M 28044,15921 L 28044,17807 29553,17807 29553,26549 28111,26549 28111,28515 -30165,28515 -29653,28448 -29168,28313 -28710,28098 -28265,27842 -27902,27559 -27578,27236 -27282,26886 -27040,26495 -26851,26118 -26730,25714 -26662,25310 -26649,24892 -26689,24474 -26770,24057 -26905,23666 -27093,23289 -27322,22925 -27578,22629 -27875,22360 -28198,22117 -28562,21942 -28939,21807 -28602,21646 -28279,21430 -27996,21188 -27753,20892 -27538,20582 -27363,20231 -27242,19881 -27134,19423 -27107,18965 -27147,18494 -27255,18049 -27444,17618 -27686,17214 -27982,16864 -28333,16568 -28723,16312 -29141,16123 -29585,15989 -29949,15935 -30313,15908 -30676,15908 -31040,15908 28044,15921 Z"/>
 <path fill="none" stroke="rgb(108,80,152)" d="M 4984,15948 L 4997,16904 4997,17847 6385,17847 6385,24178 6398,24825 6412,25458 6492,26104 6587,26549 6762,26966 6977,27370 7247,27734 7503,28004 7785,28232 8095,28421 8432,28569 8890,28731 9375,28825 9860,28893 10345,28919 10870,28933 11409,28893 11921,28825 12392,28717 12837,28556 13268,28340 13672,28071 13995,27788 14291,27465 14547,27101 14749,26710 14897,26279 14992,25835 15046,25377 15073,24919 15073,24461 15073,17847 16662,17847 16662,15948 12002,15948 12002,17847 12998,17847 12998,24461 12998,24784 12985,25108 12917,25417 12783,25754 12581,26050 12338,26293 12042,26495 11719,26630 11368,26697 11059,26697 10749,26670 10439,26589 10156,26468 9914,26279 9725,26064 9577,25821 9483,25552 9429,25269 9402,24986 9402,23343 9402,17847 10506,17847 10533,15948 4984,15948 Z"/>
 <path fill="rgb(255,255,255)" stroke="rgb(255,255,255)" d="M 17793,15921 L 24003,15921 24003,17807 22319,17807 22319,26549 26926,26549 26926,28515 17793,28515 17793,26616 19302,26616 19302,20299 19302,19060 19302,17807 17793,17807 17793,15921 Z"/>
 <path fill="none" stroke="rgb(255,255,255)" d="M 17793,15921 L 24003,15921 24003,17807 22319,17807 22319,26549 26926,26549 26926,28515 17793,28515 17793,26616 19302,26616 19302,20299 19302,19060 19302,17807 17793,17807 17793,15921 Z"/>
 <path fill="rgb(255,255,255)" stroke="rgb(255,255,255)" d="M 28044,15921 L -31040,15908 -30676,15908 -30313,15908 -29949,15935 -29585,15989 -29141,16123 -28723,16312 -28333,16568 -27982,16864 -27686,17214 -27444,17618 -27255,18049 -27147,18494 -27107,18965 -27134,19423 -27242,19881 -27363,20231 -27538,20582 -27753,20892 -27996,21188 -28279,21430 -28602,21646 -28939,21807 -28562,21942 -28198,22117 -27875,22360 -27578,22629 -27322,22925 -27093,23289 -26905,23666 -26770,24057 -26689,24474 -26649,24892 -26662,25310 -26730,25714 -26851,26118 -27040,26495 -27282,26886 -27578,27236 -27902,27559 -28265,27842 -28710,28098 -29168,28313 -29653,28448 -30165,28515 28111,28515 28111,26549 29553,26549 29553,17807 28044,17807 28044,15921 Z M 32637,17807 L 32637,21013 -31781,21013 -31538,20999 -31309,20945 -31081,20865 -30865,20743 -30676,20595 -30528,20407 -30407,20178 -30326,19949 -30272,19706 -30259,19450 -30286,19140 -30353,18831 -30474,18548 -30663,18292 -30852,18117 -31067,17982 -31309,17888 -31565,17834 -31821,17807 32637,17807 Z M 32637,22858 L 32637,24703 32637,26549 -31565,26549 -31309,26535 -31054,26481 -30798,26401 -30569,26293 -30353,26145 -30178,25956 -30030,25741 -29936,25498 -29868,25242 -29841,24932 -29841,24609 -29895,24286 -29989,23976 -30124,23693 -30326,23424 -30569,23208 -30852,23033 -31161,22925 -31444,22858 -31727,22845 -32023,22845 -32320,22845 32637,22858 Z"/>
 <path fill="none" stroke="rgb(255,255,255)" d="M 28044,15921 L -31040,15908 -30676,15908 -30313,15908 -29949,15935 -29585,15989 -29141,16123 -28723,16312 -28333,16568 -27982,16864 -27686,17214 -27444,17618 -27255,18049 -27147,18494 -27107,18965 -27134,19423 -27242,19881 -27363,20231 -27538,20582 -27753,20892 -27996,21188 -28279,21430 -28602,21646 -28939,21807 -28562,21942 -28198,22117 -27875,22360 -27578,22629 -27322,22925 -27093,23289 -26905,23666 -26770,24057 -26689,24474 -26649,24892 -26662,25310 -26730,25714 -26851,26118 -27040,26495 -27282,26886 -27578,27236 -27902,27559 -28265,27842 -28710,28098 -29168,28313 -29653,28448 -30165,28515 28111,28515 28111,26549 29553,26549 29553,17807 28044,17807 28044,15921 Z"/>
 <path fill="none" stroke="rgb(255,255,255)" d="M 32637,17807 L 32637,21013 -31781,21013 -31538,20999 -31309,20945 -31081,20865 -30865,20743 -30676,20595 -30528,20407 -30407,20178 -30326,19949 -30272,19706 -30259,19450 -30286,19140 -30353,18831 -30474,18548 -30663,18292 -30852,18117 -31067,17982 -31309,17888 -31565,17834 -31821,17807 32637,17807 Z"/>
 <path fill="none" stroke="rgb(255,255,255)" d="M 32637,22858 L 32637,24703 32637,26549 -31565,26549 -31309,26535 -31054,26481 -30798,26401 -30569,26293 -30353,26145 -30178,25956 -30030,25741 -29936,25498 -29868,25242 -29841,24932 -29841,24609 -29895,24286 -29989,23976 -30124,23693 -30326,23424 -30569,23208 -30852,23033 -31161,22925 -31444,22858 -31727,22845 -32023,22845 -32320,22845 32637,22858 Z"/>
 <path fill="rgb(255,255,255)" stroke="rgb(255,255,255)" d="M 4984,15948 L 10533,15948 10506,17847 9402,17847 9402,23343 9402,24986 9429,25269 9483,25552 9577,25821 9725,26064 9914,26279 10156,26468 10439,26589 10749,26670 11059,26697 11368,26697 11719,26630 12042,26495 12338,26293 12581,26050 12783,25754 12917,25417 12985,25108 12998,24784 12998,24461 12998,17847 12002,17847 12002,15948 16662,15948 16662,17847 15073,17847 15073,24461 15073,24919 15046,25377 14992,25835 14897,26279 14749,26710 14547,27101 14291,27465 13995,27788 13672,28071 13268,28340 12837,28556 12392,28717 11921,28825 11409,28893 10870,28933 10345,28919 9860,28893 9375,28825 8890,28731 8432,28569 8095,28421 7785,28232 7503,28004 7247,27734 6977,27370 6762,26966 6587,26549 6492,26104 6412,25458 6398,24825 6385,24178 6385,17847 4997,17847 4997,16904 4984,15948 Z"/>
 <path fill="none" stroke="rgb(255,255,255)" d="M 4984,15948 L 10533,15948 10506,17847 9402,17847 9402,23343 9402,24986 9429,25269 9483,25552 9577,25821 9725,26064 9914,26279 10156,26468 10439,26589 10749,26670 11059,26697 11368,26697 11719,26630 12042,26495 12338,26293 12581,26050 12783,25754 12917,25417 12985,25108 12998,24784 12998,24461 12998,17847 12002,17847 12002,15948 16662,15948 16662,17847 15073,17847 15073,24461 15073,24919 15046,25377 14992,25835 14897,26279 14749,26710 14547,27101 14291,27465 13995,27788 13672,28071 13268,28340 12837,28556 12392,28717 11921,28825 11409,28893 10870,28933 10345,28919 9860,28893 9375,28825 8890,28731 8432,28569 8095,28421 7785,28232 7503,28004 7247,27734 6977,27370 6762,26966 6587,26549 6492,26104 6412,25458 6398,24825 6385,24178 6385,17847 4997,17847 4997,16904 4984,15948 Z"/>
 <path fill="rgb(108,80,152)" stroke="rgb(108,80,152)" d="M 32637,17807 L -31821,17807 -31565,17834 -31309,17888 -31067,17982 -30852,18117 -30663,18292 -30474,18548 -30353,18831 -30286,19140 -30259,19450 -30272,19706 -30326,19949 -30407,20178 -30528,20407 -30676,20595 -30865,20743 -31081,20865 -31309,20945 -31538,20999 -31781,21013 32637,21013 32637,17807 Z"/>
 <path fill="none" stroke="rgb(108,80,152)" d="M 32637,17807 L -31821,17807 -31565,17834 -31309,17888 -31067,17982 -30852,18117 -30663,18292 -30474,18548 -30353,18831 -30286,19140 -30259,19450 -30272,19706 -30326,19949 -30407,20178 -30528,20407 -30676,20595 -30865,20743 -31081,20865 -31309,20945 -31538,20999 -31781,21013 32637,21013 32637,17807 Z"/>
 <path fill="rgb(108,80,152)" stroke="rgb(108,80,152)" d="M 32637,22858 L -32320,22845 -32023,22845 -31727,22845 -31444,22858 -31161,22925 -30852,23033 -30569,23208 -30326,23424 -30124,23693 -29989,23976 -29895,24286 -29841,24609 -29841,24932 -29868,25242 -29936,25498 -30030,25741 -30178,25956 -30353,26145 -30569,26293 -30798,26401 -31054,26481 -31309,26535 -31565,26549 32637,26549 32637,24703 32637,22858 Z"/>
 <path fill="none" stroke="rgb(108,80,152)" d="M 32637,22858 L -32320,22845 -32023,22845 -31727,22845 -31444,22858 -31161,22925 -30852,23033 -30569,23208 -30326,23424 -30124,23693 -29989,23976 -29895,24286 -29841,24609 -29841,24932 -29868,25242 -29936,25498 -30030,25741 -30178,25956 -30353,26145 -30569,26293 -30798,26401 -31054,26481 -31309,26535 -31565,26549 32637,26549 32637,24703 32637,22858 Z"/>
 <path fill="rgb(194,182,215)" stroke="rgb(194,182,215)" d="M 23720,26549 L 26926,23343 26926,26549 23720,26549 Z"/>
 <path fill="none" stroke="rgb(194,182,215)" d="M 23720,26549 L 26926,23343 26926,26549 23720,26549 Z"/>
</svg>