<?xml version="1.0" encoding="UTF-8" standalone="no"?>
<svg
   xmlns:dc="http://purl.org/dc/elements/1.1/"
   xmlns:cc="http://creativecommons.org/ns#"
   xmlns:rdf="http://www.w3.org/1999/02/22-rdf-syntax-ns#"
   xmlns:svg="http://www.w3.org/2000/svg"
   xmlns="http://www.w3.org/2000/svg"
   xmlns:sodipodi="http://sodipodi.sourceforge.net/DTD/sodipodi-0.dtd"
   xmlns:inkscape="http://www.inkscape.org/namespaces/inkscape"
   version="1.1"
   width="76"
   height="76"
   viewBox="0 0 76.00 76.00"
   enable-background="new 0 0 76.00 76.00"
   xml:space="preserve"
   id="svg2"
   inkscape:version="0.48.4 r9939"
   sodipodi:docname="appbar.clock.svg"
   inkscape:export-filename="C:\Users\Nico\Documents\GitHub\INFO-F308-Projet_d_informatique_3-Project-201415\video\autres\appbar.clock.png"
   inkscape:export-xdpi="1278.9474"
   inkscape:export-ydpi="1278.9474"><metadata
   id="metadata10"><rdf:RDF><cc:Work
       rdf:about=""><dc:format>image/svg+xml</dc:format><dc:type
         rdf:resource="http://purl.org/dc/dcmitype/StillImage" /><dc:title></dc:title></cc:Work></rdf:RDF></metadata><defs
   id="defs8" /><sodipodi:namedview
   pagecolor="#ffffff"
   bordercolor="#666666"
   borderopacity="1"
   objecttolerance="10"
   gridtolerance="10"
   guidetolerance="10"
   inkscape:pageopacity="0"
   inkscape:pageshadow="2"
   inkscape:window-width="640"
   inkscape:window-height="502"
   id="namedview6"
   showgrid="false"
   inkscape:zoom="3.1052632"
   inkscape:cx="38"
   inkscape:cy="38"
   inkscape:window-x="0"
   inkscape:window-y="0"
   inkscape:window-maximized="0"
   inkscape:current-layer="svg2" />
	<path
   d="m 38,23.75 c 8.7445,0 15.8333,7.0888 15.8333,15.8333 0,8.7445 -7.0888,15.8334 -15.8333,15.8334 -8.7445,0 -15.8333,-7.0889 -15.8333,-15.8334 C 22.1667,30.8388 29.2555,23.75 38,23.75 z m 0,3.9583 c -6.5584,0 -11.875,5.3167 -11.875,11.875 0,6.5584 5.3166,11.875 11.875,11.875 6.5584,0 11.875,-5.3166 11.875,-11.875 0,-6.5583 -5.3166,-11.875 -11.875,-11.875 z m 1.1875,4.75 0,5.9376 5.9375,0 c 0.8744,0 1.5833,0.7088 1.5833,1.5833 l 0,0.7916 c 0,0.8745 -0.7089,1.5834 -1.5833,1.5834 l -7.125,0 C 37.2083,42.2222 36.4167,42.0903 35.9548,41.6285 35.493,41.1667 35.3611,40.375 35.2292,39.5833 l 0,-7.125 c 0.806819,-2.428526 3.233403,-1.770612 3.9583,0 z"
   id="path4"
   inkscape:connector-curvature="0"
   style="fill:#000000;fill-opacity:1;stroke-width:0.2;stroke-linejoin:round"
   sodipodi:nodetypes="ssssssssssccssssccccc" />
</svg>